<svg xmlns="http://www.w3.org/2000/svg" width="576" height="576"><path fill="#E57A13" d="M385.375 212.313C388 213 388 213 390.5 216c7.547 13.537 9.745 28.17 5.547 43.14-2.186 5.97-5.273 11.417-9.985 15.735-.68.701-1.36 1.403-2.062 2.125.234 3.882 2.353 5.55 5.125 8.063 11.675 11.433 16.165 24.803 16.375 40.875-.223 18.647-6.564 36.711-18.5 51.062l-1.32 1.59C368.141 399.401 340.962 413.286 314 417c-4.352.29-8.661.512-13 0-2-2-2-2-2.247-4.55l.004-3.26-.01-3.691.023-4.003v-4.087q.003-4.283.024-8.567.024-5.501.02-11.003.001-4.22.013-8.439l.006-4.058c.002-1.887.012-3.774.022-5.66l.011-3.26C299 354 299 354 300 353a71 71 0 0 1 4.05-.578c12.451-1.578 23.705-3.676 33.95-11.422l2.688-1.812c3.653-3.457 5.179-6.714 5.445-11.653-.214-4.176-.708-7.578-3.258-10.973-6.417-5.72-13.68-6.734-22.008-6.59l-3.441.038q-3.562.053-7.125.117l-3.434.033-3.121.051c-2.776-.213-4.388-.781-6.746-2.211-.161-17.693.289-35.323 1-53 2.672-1.336 5.179-1.19 8.12-1.29 20.065-.682 34.269-4.543 49.88-17.71q2.654-2.158 5.313-4.312c4.255-3.49 8.48-7.015 12.687-10.563l1.673-1.407c2.092-1.77 4.143-3.529 6.054-5.495C383 213 383 213 385.375 212.313"/><path fill="#E57816" d="M349.197 179.017a275 275 0 0 0 4.979 2.631c5.986 3.251 11.204 7.09 16.387 11.477l1.807 1.524c3.249 2.841 5.626 5.457 7.63 9.351-3.208 4.363-6.842 7.597-11 11l-2.547 2.102q-2.808 2.308-5.633 4.597a299 299 0 0 0-5.328 4.446c-6.616 5.563-14.076 11.27-22.89 12.222-4.186-.427-7.368-1.82-11.04-3.742-15.389-7.912-33.397-8.408-49.933-3.656-17.808 6.328-29.59 16.365-38.168 33.02-4.65 8.828-10.644 14.094-18.461 20.011-.995.76-1.99 1.519-3.016 2.3q-2.928 2.205-5.875 4.384c-8.45 6.295-16.746 12.738-24.437 19.953C180 312 180 312 178 312v2c-3 2-3 2-5.625 1.75L170 315c-8.644-17.289-1.681-49.938 3.686-67.687 6.526-19.577 19.016-37.58 34.314-51.313l2.281-2.066c38.667-32.932 94.577-39.14 138.916-14.917"/><path fill="#060606" d="M222 289c1.927.752 1.927.752 4 2 .77 1.793.77 1.793 1.168 3.973l.503 2.451c.17.87.34 1.741.517 2.639 3.882 17.29 12.178 32.66 27.125 42.812 9.546 5.591 18.892 8.555 29.886 9.668C288 353 288 353 290 355c.247 2.588.247 2.588.243 5.903l.01 3.75-.023 4.07v4.154q-.003 4.354-.024 8.708-.024 5.593-.02 11.185-.001 4.29-.013 8.578l-.006 4.125c-.002 1.918-.012 3.836-.022 5.754l-.011 3.312C290 417 290 417 289 418c-22.921 1.856-47.19-7.46-66-20v-2l-1.75-.312c-2.607-.797-4.224-1.879-6.25-3.688v-2l-2.18-.707c-16.54-7.583-28.681-31.863-35.265-47.79-1.89-5.293-3.233-9.826-2.555-15.503 2.168-2.52 2.168-2.52 5.188-4.812l1.635-1.274c1.71-1.326 3.442-2.62 5.177-3.914q2.42-1.849 4.834-3.707 1.611-1.236 3.228-2.463c4.016-3.061 7.864-6.284 11.688-9.58 4.837-4.165 9.803-7.914 15.25-11.25"/><path fill="#DC5924" d="M396 295c6.715 5.756 8.413 15.68 9.193 24.082 1.31 21.057-4.612 41.59-18.193 57.918l-1.32 1.59C368.141 399.401 340.962 413.286 314 417c-4.352.29-8.661.512-13 0-2-2-2-2-2.247-4.55l.004-3.26-.01-3.691.023-4.003v-4.087q.003-4.283.024-8.567.024-5.501.02-11.003.001-4.22.013-8.439l.006-4.058c.002-1.887.012-3.774.022-5.66l.011-3.26C299 354 299 354 300 353a72 72 0 0 1 4.254-.535l2.588-.264 2.72-.264 2.733-.275q3.353-.337 6.705-.662l1 3c2.126.96 2.126.96 4.688 1.563 2.713.728 5.369 1.457 8.019 2.394 4.374 1.385 8.796 2.275 13.293 3.168l2.656.55c4.519.906 8.709 1.554 13.344 1.325v2l10 1v2h18l2-7h2v-4h2l1-5h2l-.07-2.922-.055-3.828-.07-3.797c.186-3.296.682-4.653 2.195-7.453.061-1.958.061-1.958-.312-4.062a112 112 0 0 1-.88-10.641c-.03-.84-.062-1.678-.094-2.543a411 411 0 0 1-.145-5.065c-.185-4.787-.75-7.665-3.569-11.689-.187-2.812-.187-2.812 0-5"/><path fill="#A75C2C" d="M396 295c6.715 5.756 8.413 15.68 9.193 24.082 1.31 21.057-4.612 41.59-18.193 57.918l-1.32 1.59C368.141 399.401 340.962 413.286 314 417c-4.352.29-8.661.512-13 0-2-2-2-2-2.247-4.55l.004-3.26-.01-3.691.023-4.003v-4.087q.003-4.283.024-8.567.024-5.501.02-11.003.001-4.22.013-8.439l.006-4.058c.002-1.887.012-3.774.022-5.66l.011-3.26C299 354 299 354 300 353c2.67-.141 5.324-.042 8 0-3 2-3 2-6 2l-1 60 14-1 1-2c5.893-1.652 11.903-2.271 18-2l1-4 9-1v-2l2.117-.988 2.758-1.325 2.742-1.3c2.647-1.307 2.647-1.307 4.383-4.387a168 168 0 0 1 6-2c3.68-1.825 3.68-1.825 6-5l3.438-.75L375 386c.73-1.977 1.394-3.98 2-6a187 187 0 0 1 6-4c.952-2.121.952-2.121 1-4l6-1 1-9 3-1v-4h2l1-5h2l-.07-2.922-.055-3.828-.07-3.797c.186-3.296.682-4.653 2.195-7.453.061-1.958.061-1.958-.312-4.062a112 112 0 0 1-.88-10.641c-.03-.84-.062-1.678-.094-2.543a411 411 0 0 1-.145-5.065c-.185-4.787-.75-7.665-3.569-11.689-.187-2.812-.187-2.812 0-5"/><path fill="#D96E23" d="M326 170c9.246 1.32 16.866 5.657 25 10l3.207 1.66c5.971 3.254 11.182 7.085 16.356 11.465l1.807 1.524c3.249 2.841 5.626 5.457 7.63 9.351-3.208 4.363-6.842 7.597-11 11l-2.547 2.102q-2.808 2.308-5.633 4.597a299 299 0 0 0-5.328 4.446c-6.616 5.563-14.076 11.27-22.89 12.222-4.186-.427-7.368-1.82-11.04-3.742-15.358-7.896-33.48-8.48-49.968-3.621C263.879 233.787 256.94 237.66 250 242l-1-4h3v-3l8-1v-3l3.875-.375c3.473-.315 3.473-.315 6.125-2.625 3.125-.125 3.125-.125 6 0v-2c11.65-2.663 27.833-4.763 38.902.988 1.39.972 2.746 1.99 4.098 3.012 1.66.369 3.325.713 5 1l1 2 15-1v-8l1.563.5c4.66.956 8.126 1.27 12.312-1.187 2.321-2.527 2.844-3.94 3.125-7.313l4 1 .313-1.937L362 213l3-1v-3l2.813-.125c3.476-.564 3.476-.564 5.062-3.937L374 202h-2v-2l-2.187-.75c-3.953-1.756-6.853-3.958-9.438-7.437-1.334-2.113-1.334-2.113-4.375-2.813v-2l-1.625-.812L346 182v-3l-4 1-2-3c-2.416-.798-2.416-.798-5.125-1.187-.91-.16-1.82-.318-2.758-.481L330 175v-2h-4z"/><path fill="#CE6133" d="m185 225 1 2c-1.166 2.47-2.39 4.85-3.687 7.25-3.87 7.426-6.403 14.572-8.313 22.75l-.506 1.977c-1.338 5.472-1.776 10.559-1.724 16.18v2.51q.006 2.595.024 5.192c.019 2.662.02 5.323.02 7.985q.007 2.531.018 5.062l.003 2.418c-.31 3.637-.31 3.637 1.165 6.676q.061 3.5 0 7l4-1 1-4h4l.625-2.062c1.825-3.9 4.107-7.11 7.375-9.938 2.875-.437 2.875-.437 5 0l2-6 7-1v-5l2.688-1.312c3.507-1.787 6.876-3.584 10.003-5.989 4.747-3.64 4.747-3.64 8.246-4.012L227 272l-.25-3.75c.007-3.935.007-3.935 1.938-6.437L231 260c4.349-3.712 5.848-6.702 7.227-12.11L239 246l3-1 2 1v-3l4 1-1.582 1.52c-5.413 5.564-9.006 11.116-12.668 17.917-4.938 8.99-10.491 14.64-18.75 20.563l-5.937 4.5-2.954 2.184c-8.45 6.295-16.746 12.738-24.437 19.953C180 312 180 312 178 312v2c-3 2-3 2-5.625 1.75L170 315c-8.95-17.898-1.49-51.75 4.465-69.96 2.306-6.433 5.644-15.149 10.535-20.04"/><path fill="#D68E38" d="M346 244c1.125 3.75 1.125 3.75 0 6-4.214 2.548-7.116 3.227-12 3l-1 1c-7.278 2.032-14.038 2.243-21.562 2.125l-3.346-.027A1200 1200 0 0 1 300 256q.176 10.226.372 20.453.065 3.481.125 6.964.088 4.992.187 9.985l.05 3.166.06 2.912.048 2.577c-.053 1.948-.053 1.948 1.158 2.943 2.267.147 4.538.228 6.809.281l2.066.056q3.28.088 6.563.163 4.31.102 8.62.219l3.885.092C333 306 333 306 335 307l-1 4-2.676-.504c-6.95-.995-14.073-.496-21.072-.369l-3.42.033-3.102.051c-2.767-.214-4.378-.787-6.73-2.211-.161-17.693.289-35.323 1-53 2.672-1.336 5.179-1.19 8.12-1.29 14.36-.488 27.537-1.63 39.88-9.71"/><path fill="#D47B35" d="M385.375 212.313C388 213 388 213 390.5 216c7.547 13.537 9.745 28.17 5.547 43.14-2.186 5.97-5.273 11.417-9.985 15.735-.68.701-1.36 1.403-2.062 2.125.092 3.112 1.231 4.347 3 7l-2 1c-2.625-.937-2.625-.937-5-2 .857-8.571.857-8.571 3-12h5l.375-1.562c.811-3.165 1.72-6.3 2.625-9.438h2l-.562-2.375C392 255 392 255 393 253c.238-3.12.185-6.248.188-9.375l.037-2.617.005-2.531.013-2.31c-.274-2.444-1.08-4.02-2.243-6.167-.414-2.36-.414-2.36-.625-4.75l-.227-2.422L390 221l-3-1v-2c-4.12 1.632-6.935 2.782-10 6h-3v2h-2v2l-1.937.313L368 229l-1 3-6 1c3.846-3.963 7.907-7.564 12.125-11.125q1.85-1.564 3.695-3.133l1.634-1.38c1.59-1.36 1.59-1.36 3.096-2.99C383 213 383 213 385.375 212.312"/><path fill="#D89125" d="m264 169 2 2-2.59.367-3.348.508-3.34.492L254 173l-1 2a96 96 0 0 1-6.312 2.063l-3.489 1.035A187 187 0 0 1 236 180v3c-3.088 1.765-4.233 2-8 2v2l-5 1v2l-2.375.688c-2.845 1.059-2.845 1.059-3.625 3.812-1 2.5-1 2.5-3.625 3.813L211 199v2l-1.75.563c-2.722 1.739-3.567 3.746-5.043 6.55-2.085 3.259-5.01 5.737-8.207 7.887h-2l-1 3h-3v2h-2c7.115-20.71 31.425-34.761 49.941-43.984 20.383-9.908 20.383-9.908 26.059-8.016"/><path fill="#C07657" d="M301.848 352.902 308 353c-3 2-3 2-6 2l-1 60 14-1 1-2c5.893-1.652 11.903-2.271 18-2l1-4 2.344-.297c6.706-.963 11.747-2.42 17.656-5.703h2v2c-10.775 5.374-21.365 9.862-33 13l-2.766.746c-6.601 1.544-13.487 1.92-20.234 1.254-2-2-2-2-2.247-4.55l.004-3.26-.01-3.691.023-4.003v-4.087q.003-4.284.024-8.567.024-5.501.02-11.003.001-4.22.013-8.439l.006-4.058c.002-1.887.012-3.774.022-5.66l.011-3.26c.186-3.372.186-3.372 2.982-3.52"/><path fill="#494545" d="M272 351q3.939.423 7.875.875l2.262.238c5.636.66 5.636.66 7.863 2.887.247 2.588.247 2.588.243 5.903l.01 3.75-.023 4.07v4.154q-.003 4.354-.024 8.708-.024 5.593-.02 11.185-.001 4.29-.013 8.578l-.006 4.125c-.002 1.918-.012 3.836-.022 5.754l-.011 3.312C290 417 290 417 289 418c-22.921 1.856-47.19-7.46-66-20v-2c3.368 1.252 6.202 2.703 9.188 4.688C249.618 411.254 268.003 413.5 288 416v-61h-9c-4.062-1-4.062-1-7-2z"/><path fill="#D16B2B" d="M326 170c9.246 1.32 16.866 5.657 25 10l3.207 1.66c5.971 3.254 11.182 7.085 16.356 11.465l1.807 1.524c3.249 2.841 5.626 5.457 7.63 9.351-2.39 3.243-4.205 5.509-8 7l1-3 2-1c.658-3.03.658-3.03 1-6l-3-2-3 1c-1.937-1.074-1.937-1.074-4-2.687l-2.062-1.575C362 194 362 194 360.438 191.855c-1.39-2.148-1.39-2.148-4.438-2.855v-2l-1.625-.812L346 182v-3l-4 1-2-3c-2.416-.798-2.416-.798-5.125-1.187-.91-.16-1.82-.318-2.758-.481L330 175v-2h-4z"/><path fill="#CF7532" d="M187 221h3c.573 4.867-1.242 7.107-4 11-.68 1.661-1.35 3.327-2 5l-2 2c-.741 1.853-1.472 3.712-2.137 5.594a128 128 0 0 1-1.945 5.062c-2.105 5.296-3.363 9.557-2.863 15.274-.055 2.07-.055 2.07-1.042 4.25-1.246 3.47-1.272 6.334-1.279 10.02l-.005 2.048a622 622 0 0 0 .01 4.264c.011 2.18 0 4.358-.012 6.537q0 2.075.007 4.15l.007 3.808c-.054 3.109-.054 3.109 2.259 4.993l-1 2c3.075-.776 3.075-.776 5-3l3 1v2h-4l-1 5h-4l-.437-3.437c-.175-3.37-.175-3.37-1.563-4.563a165 165 0 0 1-.309-7.602l-.046-2.364c-.37-23.16 1.188-43.24 12.718-63.854 1.471-2.858 2.149-5.043 2.637-8.18z"/><path fill="#C58442" d="M343 309c1.702 2.482 2.956 4.889 4.063 7.688.82 2.455.82 2.455 2.937 4.312.23 2.242.23 2.242.188 4.875l-.02 2.617c-.154 2.3-.526 4.3-1.168 6.508l-4 1 .375 2.25C345 341 345 341 342.188 343.313 339 345 339 345 336 345l-.203 1.887C335 349 335 349 332.89 350.082l-2.641.73-2.61.77c-2.852.452-4.866.151-7.64-.582 3.694-2.463 7.631-4.29 11.643-6.17 5.525-2.682 10.037-5.659 13.295-11.017 1.496-5.37 1.787-10.69-.989-15.715-2.228-2.822-4.57-4.847-7.949-6.098v-2c4.75-1 4.75-1 7-1"/><path fill="#C88662" d="m185 225 1 2c-1.166 2.47-2.39 4.85-3.687 7.25-3.87 7.426-6.403 14.572-8.313 22.75l-.5 1.899c-1.541 6.187-1.84 12.122-1.914 18.48l-.059 3.19c-.06 3.331-.106 6.662-.152 9.993q-.057 3.408-.117 6.815-.142 8.31-.258 16.623l-2-1c-6.087-28.347.2-62.379 15-87z"/><path fill="#AE8A5D" d="M326 169c-3.062 1.784-5.22 2.229-8.75 2.125l-2.422-.055L313 171v-1l-5-1v-2h-38v2l-5-1c16.988-9.58 43.256-3.586 61 1"/><path fill="#BC8147" d="M385.375 212.313c3.12.817 3.499 1.451 5.25 4.062 2.627 4.625 4.08 9.49 5.375 14.625l-2 1-2-9h-2v-2l-3-1v-2c-4.12 1.632-6.935 2.782-10 6h-3v2h-2v2l-1.937.313L368 229l-1 3-6 1c3.846-3.963 7.907-7.564 12.125-11.125q1.85-1.564 3.695-3.133l1.634-1.38c1.59-1.36 1.59-1.36 3.096-2.99C383 213 383 213 385.375 212.312"/><path fill="#A5763B" d="m264 169 2 2-2.59.367-3.348.508-3.34.492L254 173l-1 2a96 96 0 0 1-6.312 2.063l-3.489 1.035A187 187 0 0 1 236 180v3c-3.088 1.765-4.233 2-8 2v2l-5 1v2c-2.709 1.354-5.01 1.065-8 1 9.254-7.757 36.745-26.085 49-22"/><path fill="#B66F54" d="M357 400v2c-14.961 7.462-29.243 13.078-46 15 1.255-2.51 2.5-2.871 5-4v-1c6.068-1.229 11.799-2.276 18-2l1-4 2.344-.297C343.638 404.8 351.274 400 357 400"/><path fill="#BE5B31" d="M379 378h2c-.461 4.558-1.903 6.283-5.375 9.188l-2.398 2.042C371 391 371 391 368 393l-1 3c-4.332 3.577-8.449 5.291-14 6-2.397.89-4.674 1.93-7 3l-2-2 2.117-.988 2.758-1.325 2.742-1.3c2.647-1.307 2.647-1.307 4.383-4.387a168 168 0 0 1 6-2c3.68-1.825 3.68-1.825 6-5l3.438-.75L375 386c1.396-2.938 1.396-2.938 2-6z"/><path fill="#A76F30" d="M346 244c1.125 3.75 1.125 3.75 0 6-4.214 2.548-7.116 3.227-12 3l-1 1c-7.278 2.032-14.038 2.243-21.562 2.125l-3.346-.027A1200 1200 0 0 1 300 256v-2l3.594-.113c15.157-.572 29.344-1.336 42.406-9.887"/><path fill="#D88224" d="m304.36 305.748 2.202.022h2.264q2.37.006 4.741.024c2.423.018 4.846.02 7.269.02q2.301.008 4.601.018l2.204.003c5.127.049 5.127.049 7.359 1.165l-1 4-2.676-.504c-6.95-.995-14.073-.496-21.072-.369l-3.42.033-3.102.051c-2.767-.214-4.378-.787-6.73-2.211 2.493-2.493 3.958-2.237 7.36-2.252"/><path fill="#2E2927" d="m208 299 3 1-2.75 2.188c-2.008 1.663-3.465 3.094-5.062 5.187-2.72 3.263-5.856 5.56-9.262 8.074-2.032 1.416-2.032 1.416-2.926 3.551-1.89.93-1.89.93-4.25 1.875-3.757 1.627-6.9 3.097-9.75 6.125-.886 3.139-.886 3.139-1 6h-1c-.324-3.2-.324-3.2 0-7 2.168-2.52 2.168-2.52 5.188-4.812l1.624-1.265A354 354 0 0 1 187 316q2.549-1.95 5.09-3.912 1.65-1.268 3.31-2.524c3.887-2.951 7.508-6.09 11.014-9.482z"/><path fill="#AC5F3F" d="M392 361h2c.812 5.278-.87 8.155-3.828 12.297-2.755 3.429-5.641 6.708-8.61 9.953-.537.59-1.074 1.18-1.627 1.79-3.667 3.91-7.485 6.967-11.935 9.96v-3c2.648-2.36 5.463-4.425 8.3-6.55 3.625-3.29 5.17-6.614 6.512-11.262L384 372c3.125-.812 3.125-.812 6-1 .09-.957.09-.957.184-1.934l.253-2.503.247-2.497C391 362 391 362 392 361"/><path fill="#B5783B" d="m244 243 4 1-1.652 1.625c-7.063 7.34-11.641 15.406-16.348 24.375h-2c-.75-2.75-.75-2.75-1-6 1.625-2.062 1.625-2.062 4-4 4.349-3.712 5.848-6.702 7.227-12.11L239 246l3-1 2 1z"/><path fill="#DC6129" d="m173 264 2 1-.983 3.038c-1.089 3.824-1.275 7.37-1.283 11.357l-.005 2.04q-.002 2.115.01 4.228c.011 2.161 0 4.322-.012 6.483q0 2.063.007 4.124l.007 3.768c-.05 3.081-.05 3.081 2.259 4.962l-1 2c3.075-.776 3.075-.776 5-3l3 1v2h-4l-1 5h-4l-.437-3.437c-.175-3.37-.175-3.37-1.563-4.563-.113-2.788-.164-5.55-.168-8.34l-.01-2.537q-.007-2.663-.007-5.324c-.002-2.722-.02-5.443-.04-8.164q-.005-2.581-.005-5.162l-.022-2.478c.023-5.766.023-5.766 2.252-7.995"/><path fill="#C76A34" d="m372 198 5 3a129 129 0 0 1-2 7l-2 1-.437 1.938C372 213 372 213 369 215c-2.687-.375-2.687-.375-5-1l-.812 1.938C362 218 362 218 359 219l-2 3-1-5 2-1 3 1 .313-1.937L362 213l3-1v-3l2.813-.125c3.476-.564 3.476-.564 5.062-3.937L374 202h-2z"/><path fill="#E18918" d="M244 177v4l-2.922 1.426-3.828 1.887-1.922.935c-3.368 1.666-6.394 3.407-9.328 5.752l-2.312 1.313c-3.54 2.222-6.572 4.912-9.688 7.687v-3l2-1 .813-2.5L218 191c2.625-.812 2.625-.812 5-1v-2l5-1v-2c2.906-1.257 4.796-2 8-2v-3c5.75-3 5.75-3 8-3"/><path fill="#B7733D" d="m394 258 2 1c-5.413 11.862-5.413 11.862-9.437 15.5L384 277c.33 3.027 1.264 4.396 3 7l-2 1c-2.625-.937-2.625-.937-5-2 .857-8.571.857-8.571 3-12h5l.375-1.562c.811-3.165 1.72-6.3 2.625-9.438h3z"/><path fill="#DC8D30" d="M270 167h14c-3.71 2.473-6.274 2.358-10.625 2.559-2.442.207-2.442.207-3.77 1.964-2.536 2.334-4.946 1.764-8.293 1.665l-3.574-.083L255 173l-2 4h-7c2.647-1.46 3.894-2 7-2l1-3 3.313-.312c3.623-.306 3.623-.306 5.25-2.313L264 168c3.188.313 3.188.313 6 1z"/><path fill="#BC6231" d="m319 351 1 4c-3.042 1.521-6.28 1.374-9.625 1.563l-2.14.13q-2.618.158-5.235.307l-1 11h-1a701 701 0 0 1-.062-4.812l-.036-2.708C301 358 301 358 302 355l6-1v-2c3.735-.575 7.213-1 11-1"/><path fill="#A9765A" d="M356 184c8.736 3.146 16.58 10.407 23 17l1 3c-2.226 3.38-4.213 5.512-8 7l1-3 2-1c1.364-2.667 1.364-2.667 1-6-3.08-3.653-6.455-6.485-11-8v-2h-3a91 91 0 0 1-4-4l-2-1z"/><path fill="#A26139" d="m364 213 1 2 2 1c-13.692 12.838-13.692 12.838-19 16l-3-1v-2h3v-3c6.625-4 6.625-4 10-4l.313-1.937L359 218l3-1c1.209-2 1.209-2 2-4"/><path fill="#B1713F" d="M326 170c6.437.92 11.676 3.104 17.438 6l2.152 1.08c2.793 1.437 5.176 2.686 7.41 4.92h-7v-3l-4 1-2-3c-2.416-.798-2.416-.798-5.125-1.187-.91-.16-1.82-.318-2.758-.481L330 175v-2h-4z"/><path fill="#D67727" d="M343 309c1.702 2.482 2.956 4.889 4.063 7.688.82 2.455.82 2.455 2.937 4.312.266 2.242.266 2.242.25 4.875l.016 2.617c-.277 2.613-.947 4.258-2.266 6.508q-.04-2.437-.062-4.875l-.036-2.742C348 325 348 325 349 323h-2v-3h-2a310 310 0 0 1-3.691-4.531c-1.564-1.756-3.112-2.655-5.309-3.469v-2c4.75-1 4.75-1 7-1"/><path fill="#B47835" d="m272 231-2.273.883c-7.004 2.805-13.385 6.034-19.727 10.117l-1-4h3v-3l8-1v-3c8.036-1.205 8.036-1.205 12 0"/><path fill="#7A7575" d="M223 396c3.368 1.252 6.202 2.703 9.188 4.688 5.632 3.483 11.629 5.705 17.83 7.951 5.883 2.163 5.883 2.163 6.982 4.361-6.323-1.15-11.801-2.986-17.562-5.812l-2.235-1.077c-4.946-2.415-9.734-4.878-14.203-8.111z"/><path fill="#B6653E" d="m171 304 2 1v7l4-1 1-4 4 1-2 4h-2v2c-3 2-3 2-5.687 1.625L170 315c-.125-7.625-.125-7.625 1-11"/><path fill="#AC763E" d="m301.797 305.957 3.523.285 3.809.293 3.996.34q2.01.16 4.02.316 4.928.39 9.855.809v1c-4.25.226-8.5.428-12.75.625l-3.656.195-3.516.157-3.237.158c-2.87-.136-4.423-.64-6.841-2.135 2-2 2-2 4.797-2.043"/><path fill="#E78307" d="m354 242 2 1c-.086 2.913-.58 4.568-2.625 6.668A127 127 0 0 1 348 254l-1-2-2-1c.625-2.375.625-2.375 2-5 3.063-1.187 3.063-1.187 6-2z"/><path fill="#885530" d="M396 233c2.175 3.516 2.24 6.35 2.188 10.438l-.02 3.37A45.5 45.5 0 0 1 397 255c-2-2-2-2-2.243-3.848l.013-2.214.005-2.415.038-2.523.001-2.523c.046-6.196.046-6.196 1.186-8.477"/><path fill="#C07932" d="M337 345c-1.004 2.71-1.566 3.787-4.207 5.082l-2.606.73-2.582.77c-2.836.455-4.845.146-7.605-.582 2.784-1.856 5.476-3.269 8.5-4.687l2.906-1.387C334 344 334 344 337 345"/><path fill="#C15B2E" d="M356 395c2.625-.187 2.625-.187 5 0l-2 6-2.562.313c-3.852.77-6.879 2.05-10.438 3.687l-2-2 2.117-.988 2.758-1.325 2.742-1.3c2.647-1.307 2.647-1.307 4.383-4.387"/><path fill="#B87148" d="M396 295c4.577 3.923 6.1 8.53 6.688 14.375.115 1.54.224 3.082.312 4.625h-3l-.367-2.555-.508-3.32-.492-3.305c-.396-2.94-.396-2.94-2.633-4.82-.125-2.625-.125-2.625 0-5"/><path fill="#B46448" d="M198 291c4 0 4 0 6 1l-16 13c0-2.621.313-4.51 1-7h5l.875-1.937C196 294 196 294 198 293z"/><path fill="#9F6033" d="m342 232 4 1c-10.672 6.012-10.672 6.012-17 5l-4-3 17-1z"/><path fill="#DD6726" d="m368 208 3 2h-3l-1 5-3-1-.812 1.938C362 218 362 218 359 219l-2 3-1-5 2-1 3 1 .313-1.937L362 213l3-1v-3z"/><path fill="#E06823" d="M178 247c1.125 3.75 1.125 3.75 0 6h2v7h-3c-1.688 1.438-1.688 1.438-3 3 .524-5.868 1.761-10.549 4-16"/><path fill="#E48F07" d="m204 207 1 2c-1.508 3.371-2.832 4.889-5.937 6.938-3.422 2.304-4.938 4.57-7.063 8.062l-2 2v-7l3-1a180 180 0 0 0 4-4l2.625-2.062c2.557-1.893 2.557-1.893 4.375-4.938"/><path fill="#BB7F4B" d="M276 226h14v2q-3.562.506-7.125 1c-.665.095-1.33.19-2.016.29-3.985.546-7.838.81-11.859.71l1-2h6z"/><path fill="#B8935B" d="m213 192 1 4-1.687.688c-2.955 1.676-4.944 3.885-7.313 6.312a206 206 0 0 1-5 4l-2-1q2.34-2.38 4.688-4.75l2.636-2.672c2.456-2.366 4.977-4.497 7.676-6.578"/><path fill="#545252" d="M191 313v3a83 83 0 0 1-5.875 5.125l-1.684 1.379c-4.087 3.319-4.087 3.319-6.441 4.496-.658 3.03-.658 3.03-1 6h-1c-.36-3.172-.36-3.172 0-7 1.926-2.144 3.476-3.59 5.75-5.25l1.633-1.273c1.522-1.181 3.069-2.33 4.617-3.477l2.39-1.797z"/><path fill="#5D5858" d="M229 311h2c1.51 2.765 3.006 5.538 4.5 8.313l1.3 2.38 1.231 2.295 1.143 2.11C240 328 240 328 240 331c-11-13.533-11-13.533-11-20"/><path fill="#D35D2D" d="M204 283h2v7l-6 3v-2h-2l1 3h-3l1-5 7-1z"/><path fill="#B67225" d="M346 244c1 4 1 4 0 6-2.875 1.688-2.875 1.688-6 3l-3-1v-3z"/><path fill="#A86938" d="M326 170c-2.995.872-5.636 1.108-8.75 1.063l-2.422-.028L313 171v-1l-5-1v-1c6.087-1.767 12.485-1.064 18 2"/><path fill="#DF6F1B" d="M397 302h2c1.095 3.285 1.1 5.737 1.063 9.188l-.028 3.292L400 317c-2.016-1.113-2.016-1.113-4-3-.172-2.918-.172-2.918.25-6.187l.39-3.293c.12-.832.238-1.663.36-2.52"/><path fill="#D16933" d="m178 242 2 1c-.73 3.215-1.78 6.227-2.937 9.313-1.547 4.196-2.911 8.367-4.063 12.687-1.683-3.366-.048-6.864.813-10.375l.54-2.328c.877-3.657 1.715-7.027 3.647-10.297"/><path fill="#A36F32" d="m360 233 1 3-2 1-.812 1.938c-1.596 2.77-3.22 3.049-6.188 4.062l-3 2-2-2 6.64-5.176A453 453 0 0 1 360 233"/><path fill="#A37651" d="M356 184c3.737 1.327 6.531 2.966 9.625 5.438l2.29 1.808A65 65 0 0 1 373 196c-2.929-.628-5.361-1.586-8-3v-2h-3a91 91 0 0 1-4-4l-2-1z"/><path fill="#C3954B" d="m226 183 2 1v3l-5 1v2c-2.709 1.354-5.01 1.065-8 1 3.54-2.916 7.163-5.501 11-8"/><path fill="#B87C44" d="M293 226c2.438-.081 4.874-.14 7.313-.187l2.091-.077c2.022-.029 2.022-.029 5.596.264l3 3-18-1z"/><path fill="#C46A3C" d="m364 213 1 2 2 1a305 305 0 0 1-4.187 4l-2.356 2.25c-2.787 1.985-4.115 2.13-7.457 1.75l2-2h3l.313-1.937L359 218l3-1c1.209-2 1.209-2 2-4"/><path fill="#E16E1A" d="M400 324c2.097 3.407 2.413 6.032 2 10-1.5 2.375-1.5 2.375-3 4-1.37-2.884-2.243-5.01-1.465-8.18.753-1.968 1.603-3.897 2.465-5.82"/><path fill="#C29950" d="M197 207h1v5h-2v2l-2 1c-.652 2.025-.652 2.025-1 4h-3v2h-2c1.346-3.809 3.054-6.654 5.563-9.812l1.878-2.395z"/><path fill="#C56E31" d="M400 336h2c.222 1.456.427 2.915.625 4.375l.352 2.46L403 345l-2 2-2-1c-.125-7.75-.125-7.75 1-10"/><path fill="#AB7A55" d="M389 215c2.322 2.876 3.866 5.638 5.25 9.063l1.078 2.597C396 229 396 229 395 232c-2.125-3.188-2.502-5.265-3-9h-2c-1.354-2.709-1.065-5.01-1-8"/><path fill="#B26D4B" d="m217 279 2 1c-8.262 7.483-8.262 7.483-13 10v-7l2.125.813c3.335.217 3.74-.181 6.188-2.25z"/><path fill="#CF8D40" d="m231 260 2 1-3 9h-2c-.75-2.75-.75-2.75-1-6 1.938-2.375 1.938-2.375 4-4"/><path fill="#D76D2F" d="M362 192c7.921 1.943 7.921 1.943 10 5v3c-3.987-1.367-6.885-3.152-10-6z"/><path fill="#9B6E40" d="m264 169 2 2q-2.843.506-5.687 1l-3.2.563A47 47 0 0 1 249 173c2.605-1.737 4.583-2.691 7.5-3.687l2.344-.825C261 168 261 168 264 169"/><path fill="#C77C49" d="M392 361h2c.504 5.294-.81 7.814-4 12l-2-1c1.213-3.724 2.509-7.378 4-11"/><path fill="#AD6833" d="m319.688 229.125 2.386.758C324 231 324 231 324.77 233.117L325 235c-4.722-1.535-9.359-3.24-14-5 3.328-2.087 4.994-2.133 8.688-.875"/><path fill="#B48F70" d="M380 382c0 3 0 3-2.082 5.227l-2.73 2.398-2.708 2.414C370 394 370 394 367 395c1.516-3.856 3.812-5.695 7.063-8.187l2.722-2.106L379 383z"/><path fill="#E36D1A" d="m391 356 3 1v4l-2 1a101 101 0 0 0-2 6h-1c-.286-8.571-.286-8.571 2-12"/><path fill="#C47941" d="M381 275c3.034 3.034 5 5.638 5 10l-6-2z"/><path fill="#AB6341" d="m227 268 2 4-8 7-1-4h3v-3h4z"/><path fill="#835D2B" d="M337 250v2c-3.704 2.376-6.93 2.205-11.25 2.125l-3.828-.055L319 254v-1q3.938-.753 7.875-1.5l2.262-.434C334.773 250 334.773 250 337 250"/><path fill="#D87F22" d="m377 223 2 1c-4.308 4.923-4.308 4.923-7.812 5.313L369 229v3h-2l1-4h4v-2h2v-2z"/><path fill="#CD8532" d="M187 221h3c.25 2.25.25 2.25 0 5-2 2.313-2 2.313-4 4-.625-2.812-.625-2.812-1-6z"/><path fill="#E58E0A" d="m211 199 2 1-2 6h-5l1-4 4-1z"/><path fill="#BA8044" d="M253 173v2c-3.877 1.193-6.916 2-11 2v-2c3.83-1.802 6.781-2.196 11-2"/><path fill="#6D6969" d="M244 407c1.607.425 3.21.866 4.813 1.313l2.707.738c2.532.97 3.752 1.9 5.48 3.949-9.595-1.558-9.595-1.558-13-6"/><path fill="#A56B40" d="M387 284q1.696 1.364 3.375 2.75l1.898 1.547c1.81 1.785 2.728 3.382 3.727 5.703h-3c-1.605-1.68-1.605-1.68-3.187-3.875l-1.606-2.18C387 286 387 286 387 284"/><path fill="#CC5E39" d="M379 378h2c-.306 3.674-.758 4.781-3.562 7.313L375 387c.645-3.483 1.982-6.094 4-9"/><path fill="#6C6A67" d="M222 289v3c-1.969 1.605-1.969 1.605-4.5 3.188l-2.531 1.605L213 298v-3c1.969-1.605 1.969-1.605 4.5-3.187l2.531-1.606z"/><path fill="#B56D53" d="M362 393c2.063.438 2.063.438 4 1-1.098 2.993-1.677 3.846-4.625 5.25L359 400c1.875-5.875 1.875-5.875 3-7"/><path fill="#E06B1F" d="m185 232 5 5c-1.312 1.5-1.312 1.5-3 3h-3z"/><path fill="#9F6530" d="M272 231a345 345 0 0 1-3.75 1.5l-2.11.844C264 234 264 234 260 234v-3c8.036-1.205 8.036-1.205 12 0"/><path fill="#C36A35" d="m347 181 10 2-1 3c-3.483-.645-6.062-2.041-9-4z"/><path fill="#E28E15" d="M194 216c.688 1.75.688 1.75 1 4-1.445 2.34-3.056 4.056-5 6v-7l3-1z"/><path fill="#D79B38" d="m214 191 4 1c-1.477 4.677-1.477 4.677-4.125 6.313L212 199z"/><path fill="#E45D16" d="M303 357h8l-2 3c-3.125.188-3.125.188-6 0z"/><path fill="#A0623C" d="m399 346 3 1-3 10c-1.05-4.199-.728-6.794 0-11"/><path fill="#C06C4E" d="M189 298h5c-1.333 4-3.496 4.838-7 7z"/><path fill="#966F4C" d="M385.75 212.688 388 213l-1 3c-1.848.73-1.848.73-4.062 1.188l-2.223.48L379 218c3.323-4.923 3.323-4.923 6.75-5.312"/><path fill="#CD9256" d="m335 307-1 4-7-1v-2c2.763-.597 5.16-1 8-1"/><path fill="#C2582B" d="m222 272 1 3h-3v5h-4c1.443-3.366 3.333-5.51 6-8"/><path fill="#DB7524" d="M390 261h1c-.615 6.523-.615 6.523-2.562 8.938-.475.35-.95.7-1.438 1.062v-6h2z"/><path fill="#E48E09" d="m220 192 2 1-7 7-2-2z"/><path fill="#C8592B" d="M315.25 412.313 318 413c-3.644 2.43-5.712 2.162-10 2 2.637-2.536 3.509-3.047 7.25-2.687"/><path fill="#E95B22" d="M319 355h5v3l-5 1z"/><path fill="#D09651" d="m336 310 7 2v3c-4.75-1.875-4.75-1.875-7-3z"/><path fill="#DB851A" d="m334 252 3 1c-1 1.563-1 1.563-3 3-2.766-.033-5.26-.506-8-1v-1l3.438-.437c3.37-.175 3.37-.175 4.562-1.563"/><path fill="#D68221" d="M361 233h2v5l-4 1v-3h2z"/><path fill="#99673F" d="m326 170 9 2v1h-9z"/><path fill="#A46F37" d="m334 344 3 1-1 2c-2.649.594-5.292.742-8 1 1.964-1.506 3.783-2.891 6-4"/><path fill="#463F3E" d="M191 313v3c-2.312 2.25-2.312 2.25-5 4l-3-1z"/><path fill="#B9856F" d="M371 196c3.255.349 4.019 1.021 6.25 3.563L379 202l-2 1c-4.875-4.75-4.875-4.75-6-7"/><path fill="#AB813F" d="m220 187 3 1v2c-2.709 1.354-5.01 1.065-8 1 2.313-2.062 2.313-2.062 5-4"/></svg>