<?xml version="1.0" encoding="UTF-8"?>
<svg version="1.1" xmlns="http://www.w3.org/2000/svg" width="576" height="576">
<path d="M0 0 C2.625 0.6875 2.625 0.6875 5.125 3.6875 C12.67195346 17.22409906 14.87017758 31.85681959 10.671875 46.828125 C8.48623137 52.79786805 5.39900121 58.24471755 0.6875 62.5625 C0.006875 63.26375 -0.67375 63.965 -1.375 64.6875 C-1.14093251 68.56979185 0.97843056 70.23679721 3.75 72.75 C15.42458424 84.18329713 19.91501943 97.553677 20.125 113.625 C19.90245973 132.2722709 13.56060431 150.33659633 1.625 164.6875 C1.18913574 165.21230957 0.75327148 165.73711914 0.30419922 166.27783203 C-17.23281522 187.08891116 -44.41192663 200.97383596 -71.375 204.6875 C-75.7270009 204.97794074 -80.03602997 205.19992437 -84.375 204.6875 C-86.375 202.6875 -86.375 202.6875 -86.62223816 200.13792419 C-86.62081314 199.06172318 -86.61938812 197.98552216 -86.61791992 196.87670898 C-86.62099655 195.65882187 -86.62407318 194.44093475 -86.62724304 193.18614197 C-86.62034583 191.85195731 -86.6130789 190.51777453 -86.60546875 189.18359375 C-86.60427702 187.82121321 -86.60382377 186.45883184 -86.6040802 185.09645081 C-86.60251523 182.24076192 -86.5942238 179.38519838 -86.58081055 176.52954102 C-86.56380453 172.86174113 -86.55999665 169.19407886 -86.56075573 165.52624416 C-86.56048436 162.71335018 -86.55500881 159.90048653 -86.54775429 157.08760262 C-86.54456351 155.73475436 -86.54259926 154.38190265 -86.54186058 153.02905083 C-86.53970227 151.14232021 -86.53017275 149.25560231 -86.52026367 147.36889648 C-86.51645187 146.29349106 -86.51264008 145.21808563 -86.50871277 144.11009216 C-86.375 141.6875 -86.375 141.6875 -85.375 140.6875 C-84.03170106 140.4510943 -82.67889202 140.26812014 -81.32421875 140.109375 C-68.87373232 138.53122858 -57.61971371 136.43350305 -47.375 128.6875 C-46.488125 128.089375 -45.60125 127.49125 -44.6875 126.875 C-41.03369629 123.41869919 -39.50829945 120.16138097 -39.2421875 115.22265625 C-39.45570999 111.0464076 -39.9500913 107.64424933 -42.5 104.25 C-48.91725429 98.53027335 -56.1803761 97.5152352 -64.5078125 97.66015625 C-66.21130859 97.67852539 -66.21130859 97.67852539 -67.94921875 97.69726562 C-70.32427805 97.73253878 -72.69928365 97.77162643 -75.07421875 97.81445312 C-76.20730469 97.82541016 -77.34039062 97.83636719 -78.5078125 97.84765625 C-80.05299561 97.87291382 -80.05299561 97.87291382 -81.62939453 97.89868164 C-84.40483072 97.68520553 -86.01651024 97.11704798 -88.375 95.6875 C-88.53609319 77.99451062 -88.0863071 60.36423803 -87.375 42.6875 C-84.70268228 41.35134114 -82.19639199 41.49722227 -79.25585938 41.39770508 C-59.18973203 40.71540983 -44.98615303 36.85411589 -29.375 23.6875 C-27.60537027 22.24851857 -25.83449899 20.81106286 -24.0625 19.375 C-19.80736372 15.88469563 -15.58206723 12.36046592 -11.375 8.8125 C-10.82287842 8.34803467 -10.27075684 7.88356934 -9.7019043 7.4050293 C-7.61030773 5.6346688 -5.55891248 3.87682167 -3.6484375 1.91015625 C-2.375 0.6875 -2.375 0.6875 0 0 Z " fill="#E57A13" transform="translate(385.375,212.3125)"/>
<path d="M0 0 C1.64810891 0.89880621 3.31282773 1.76698188 4.97900391 2.63183594 C10.96563369 5.88285344 16.18288734 9.72096859 21.36572266 14.10839844 C21.9620752 14.61145508 22.55842773 15.11451172 23.17285156 15.6328125 C26.42220833 18.47354512 28.79897745 21.08902874 30.80322266 24.98339844 C27.59490923 29.3467047 23.96084658 32.58030626 19.80322266 35.98339844 C18.96275391 36.67691406 18.12228516 37.37042969 17.25634766 38.08496094 C15.38408025 39.62402821 13.50629423 41.15640241 11.62353516 42.68261719 C9.8312724 44.14472628 8.05330901 45.62467973 6.29541016 47.12792969 C-0.32082202 52.69109597 -7.78108668 58.39825485 -16.59521484 59.35058594 C-20.78098413 58.92383723 -23.96311174 57.52975614 -27.63427734 55.60839844 C-43.0237425 47.69657309 -61.03128228 47.20003485 -77.56787109 51.95214844 C-95.3761854 58.2801929 -107.15847275 68.31765475 -115.73583984 84.97167969 C-120.38505687 93.80061153 -126.38023789 99.06614094 -134.19677734 104.98339844 C-135.19193359 105.74265625 -136.18708984 106.50191406 -137.21240234 107.28417969 C-139.16448387 108.7534603 -141.12287937 110.21438856 -143.08740234 111.66699219 C-151.53774393 117.96228435 -159.8335612 124.40587051 -167.52490234 131.62011719 C-169.19677734 132.98339844 -169.19677734 132.98339844 -171.19677734 132.98339844 C-171.19677734 133.64339844 -171.19677734 134.30339844 -171.19677734 134.98339844 C-174.19677734 136.98339844 -174.19677734 136.98339844 -176.82177734 136.73339844 C-177.99740234 136.36214844 -177.99740234 136.36214844 -179.19677734 135.98339844 C-187.84105417 118.69484479 -180.87782109 86.04515272 -175.51074219 68.29638672 C-168.98492603 48.71893823 -156.49438911 30.71648172 -141.19677734 16.98339844 C-140.44396484 16.30148438 -139.69115234 15.61957031 -138.91552734 14.91699219 C-100.24841777 -18.01449613 -44.33886841 -24.2220543 0 0 Z " fill="#E57816" transform="translate(349.19677734375,179.0166015625)"/>
<path d="M0 0 C1.92700195 0.75170898 1.92700195 0.75170898 4 2 C4.77026367 3.79321289 4.77026367 3.79321289 5.16796875 5.97265625 C5.33385498 6.78162354 5.49974121 7.59059082 5.6706543 8.42407227 C5.84121338 9.29475342 6.01177246 10.16543457 6.1875 11.0625 C10.06971179 28.35259128 18.3657743 43.72250707 33.3125 53.875 C42.8594657 59.46641109 52.20487477 62.43008187 63.19921875 63.54296875 C66 64 66 64 68 66 C68.24723816 68.58753967 68.24723816 68.58753967 68.24291992 71.90258789 C68.24753487 73.75944969 68.24753487 73.75944969 68.25224304 75.65382385 C68.24534583 77.0101032 68.2380789 78.36638071 68.23046875 79.72265625 C68.22927703 81.10745704 68.22882377 82.49225865 68.2290802 83.87705994 C68.22751518 86.77982642 68.21922339 89.68246961 68.20581055 92.58520508 C68.18880479 96.31353857 68.18499664 100.04173668 68.18575573 103.77010441 C68.18548437 106.62932131 68.18000887 109.48850837 68.17275429 112.34771538 C68.16956343 113.72289237 68.16759924 115.09807275 68.16686058 116.47325325 C68.16470235 118.39111668 68.15517294 120.3089676 68.14526367 122.22680664 C68.14145187 123.31997696 68.13764008 124.41314728 68.13371277 125.53944397 C68 128 68 128 67 129 C44.07851564 130.85596693 19.80940726 121.53960484 1 109 C1 108.34 1 107.68 1 107 C0.4225 106.896875 -0.155 106.79375 -0.75 106.6875 C-3.35661158 105.89103535 -4.9735311 104.80934723 -7 103 C-7 102.34 -7 101.68 -7 101 C-8.07894531 100.65001953 -8.07894531 100.65001953 -9.1796875 100.29296875 C-25.71988611 92.71013532 -37.8613692 68.42993125 -44.4453125 52.50390625 C-46.335355 47.21046553 -47.67837747 42.67661146 -47 37 C-44.83203125 34.48046875 -44.83203125 34.48046875 -41.8125 32.1875 C-41.27294678 31.76718506 -40.73339355 31.34687012 -40.17749023 30.91381836 C-38.46680535 29.58794507 -36.73541784 28.29326695 -35 27 C-33.38549659 25.76838658 -31.77551281 24.53104084 -30.16577148 23.29321289 C-29.09209885 22.46903385 -28.01606025 21.64792835 -26.93774414 20.82983398 C-22.92203688 17.768793 -19.0739158 14.5462087 -15.25 11.25 C-10.41270861 7.08467558 -5.44737522 3.33598948 0 0 Z " fill="#060606" transform="translate(222,289)"/>
<path d="M0 0 C6.71505439 5.75576091 8.41307667 15.68019924 9.19335938 24.08203125 C10.50231446 45.13913476 4.58063428 65.67117666 -9 82 C-9.43586426 82.52480957 -9.87172852 83.04961914 -10.32080078 83.59033203 C-27.85781522 104.40141116 -55.03692663 118.28633596 -82 122 C-86.3520009 122.29044074 -90.66102997 122.51242437 -95 122 C-97 120 -97 120 -97.24723816 117.45042419 C-97.24581314 116.37422318 -97.24438812 115.29802216 -97.24291992 114.18920898 C-97.24599655 112.97132187 -97.24907318 111.75343475 -97.25224304 110.49864197 C-97.24534583 109.16445731 -97.2380789 107.83027453 -97.23046875 106.49609375 C-97.22927702 105.13371321 -97.22882377 103.77133184 -97.2290802 102.40895081 C-97.22751523 99.55326192 -97.2192238 96.69769838 -97.20581055 93.84204102 C-97.18880453 90.17424113 -97.18499665 86.50657886 -97.18575573 82.83874416 C-97.18548436 80.02585018 -97.18000881 77.21298653 -97.17275429 74.40010262 C-97.16956351 73.04725436 -97.16759926 71.69440265 -97.16686058 70.34155083 C-97.16470227 68.45482021 -97.15517275 66.56810231 -97.14526367 64.68139648 C-97.14145187 63.60599106 -97.13764008 62.53058563 -97.13371277 61.42259216 C-97 59 -97 59 -96 58 C-94.58879098 57.77428816 -93.16823957 57.60611651 -91.74609375 57.46484375 C-90.46508789 57.33432617 -90.46508789 57.33432617 -89.15820312 57.20117188 C-87.81145508 57.0706543 -87.81145508 57.0706543 -86.4375 56.9375 C-85.53580078 56.84662109 -84.63410156 56.75574219 -83.70507812 56.66210938 C-81.47041566 56.43746077 -79.23542161 56.21694231 -77 56 C-76.67 56.99 -76.34 57.98 -76 59 C-73.87449282 59.95953524 -73.87449282 59.95953524 -71.3125 60.5625 C-68.5992985 61.29123546 -65.9429622 62.02016488 -63.29296875 62.95703125 C-58.91871235 64.34247189 -54.49694737 65.23222368 -50 66.125 C-49.1234375 66.30675781 -48.246875 66.48851562 -47.34375 66.67578125 C-42.82525103 67.58084204 -38.63510732 68.22870595 -34 68 C-34 68.66 -34 69.32 -34 70 C-30.7 70.33 -27.4 70.66 -24 71 C-24 71.66 -24 72.32 -24 73 C-23.03578125 73 -22.0715625 73 -21.078125 73 C-16.05208333 73 -11.02604167 73 -6 73 C-5.34 70.69 -4.68 68.38 -4 66 C-3.34 66 -2.68 66 -2 66 C-2 64.68 -2 63.36 -2 62 C-1.34 62 -0.68 62 0 62 C0.33 60.35 0.66 58.7 1 57 C1.66 57 2.32 57 3 57 C2.97679687 56.03578125 2.95359375 55.0715625 2.9296875 54.078125 C2.91164063 52.81484375 2.89359375 51.5515625 2.875 50.25 C2.85179687 48.99703125 2.82859375 47.7440625 2.8046875 46.453125 C2.99113618 43.15671227 3.48747936 41.80028922 5 39 C5.06136632 37.04189324 5.06136632 37.04189324 4.6875 34.9375 C4.22460465 31.38331501 3.93278853 27.87652339 3.80859375 24.296875 C3.77741455 23.45777588 3.74623535 22.61867676 3.71411133 21.75415039 C3.65550619 20.06616174 3.60687988 18.37779191 3.5690918 16.68920898 C3.38421891 11.90153786 2.81987611 9.02412029 0 5 C-0.1875 2.1875 -0.1875 2.1875 0 0 Z " fill="#DC5924" transform="translate(396,295)"/>
<path d="M0 0 C6.71505439 5.75576091 8.41307667 15.68019924 9.19335938 24.08203125 C10.50231446 45.13913476 4.58063428 65.67117666 -9 82 C-9.43586426 82.52480957 -9.87172852 83.04961914 -10.32080078 83.59033203 C-27.85781522 104.40141116 -55.03692663 118.28633596 -82 122 C-86.3520009 122.29044074 -90.66102997 122.51242437 -95 122 C-97 120 -97 120 -97.24723816 117.45042419 C-97.24581314 116.37422318 -97.24438812 115.29802216 -97.24291992 114.18920898 C-97.24599655 112.97132187 -97.24907318 111.75343475 -97.25224304 110.49864197 C-97.24534583 109.16445731 -97.2380789 107.83027453 -97.23046875 106.49609375 C-97.22927702 105.13371321 -97.22882377 103.77133184 -97.2290802 102.40895081 C-97.22751523 99.55326192 -97.2192238 96.69769838 -97.20581055 93.84204102 C-97.18880453 90.17424113 -97.18499665 86.50657886 -97.18575573 82.83874416 C-97.18548436 80.02585018 -97.18000881 77.21298653 -97.17275429 74.40010262 C-97.16956351 73.04725436 -97.16759926 71.69440265 -97.16686058 70.34155083 C-97.16470227 68.45482021 -97.15517275 66.56810231 -97.14526367 64.68139648 C-97.14145187 63.60599106 -97.13764008 62.53058563 -97.13371277 61.42259216 C-97 59 -97 59 -96 58 C-93.32941149 57.85884839 -90.67567762 57.95752893 -88 58 C-91 60 -91 60 -94 60 C-94.33 79.8 -94.66 99.6 -95 120 C-90.38 119.67 -85.76 119.34 -81 119 C-80.67 118.34 -80.34 117.68 -80 117 C-74.10740139 115.34844122 -68.09718475 114.72901401 -62 115 C-61.505 113.02 -61.505 113.02 -61 111 C-56.545 110.505 -56.545 110.505 -52 110 C-52 109.34 -52 108.68 -52 108 C-51.30132812 107.67386719 -50.60265625 107.34773438 -49.8828125 107.01171875 C-48.97273438 106.57472656 -48.06265625 106.13773437 -47.125 105.6875 C-45.76761719 105.04361328 -45.76761719 105.04361328 -44.3828125 104.38671875 C-41.73550524 103.0800612 -41.73550524 103.0800612 -40 100 C-38.01363702 99.29373761 -36.01151741 98.63106429 -34 98 C-30.32064321 96.17499082 -30.32064321 96.17499082 -28 93 C-26.2984375 92.62875 -26.2984375 92.62875 -24.5625 92.25 C-23.386875 91.8375 -22.21125 91.425 -21 91 C-20.26919734 89.02253397 -19.60578253 87.01927511 -19 85 C-17.02514795 83.6296945 -15.02613283 82.29327628 -13 81 C-12.04768403 78.87880872 -12.04768403 78.87880872 -12 77 C-10.02 76.67 -8.04 76.34 -6 76 C-5.67 73.03 -5.34 70.06 -5 67 C-4.01 66.67 -3.02 66.34 -2 66 C-2 64.68 -2 63.36 -2 62 C-1.34 62 -0.68 62 0 62 C0.33 60.35 0.66 58.7 1 57 C1.66 57 2.32 57 3 57 C2.97679687 56.03578125 2.95359375 55.0715625 2.9296875 54.078125 C2.91164063 52.81484375 2.89359375 51.5515625 2.875 50.25 C2.85179687 48.99703125 2.82859375 47.7440625 2.8046875 46.453125 C2.99113618 43.15671227 3.48747936 41.80028922 5 39 C5.06136632 37.04189324 5.06136632 37.04189324 4.6875 34.9375 C4.22460465 31.38331501 3.93278853 27.87652339 3.80859375 24.296875 C3.77741455 23.45777588 3.74623535 22.61867676 3.71411133 21.75415039 C3.65550619 20.06616174 3.60687988 18.37779191 3.5690918 16.68920898 C3.38421891 11.90153786 2.81987611 9.02412029 0 5 C-0.1875 2.1875 -0.1875 2.1875 0 0 Z " fill="#A75C2C" transform="translate(396,295)"/>
<path d="M0 0 C9.24555877 1.32079411 16.86597669 5.65650967 25 10 C26.05832031 10.54785156 27.11664063 11.09570312 28.20703125 11.66015625 C34.17845033 14.91366035 39.38860321 18.74513689 44.5625 23.125 C45.15885254 23.62805664 45.75520508 24.13111328 46.36962891 24.64941406 C49.61898567 27.49014668 51.99575479 30.1056303 54 34 C50.79168657 38.36330627 47.15762393 41.59690782 43 45 C42.15953125 45.69351563 41.3190625 46.38703125 40.453125 47.1015625 C38.5808576 48.64062977 36.70307158 50.17300397 34.8203125 51.69921875 C33.02804974 53.16132784 31.25008635 54.6412813 29.4921875 56.14453125 C22.87595532 61.70769753 15.41569066 67.41485641 6.6015625 68.3671875 C2.41579322 67.94043879 -0.7663344 66.5463577 -4.4375 64.625 C-19.79550619 56.72934792 -37.91708096 56.14413969 -54.40625 61.00390625 C-62.12064163 63.78659752 -69.0602091 67.66106767 -76 72 C-76.33 70.68 -76.66 69.36 -77 68 C-76.01 68 -75.02 68 -74 68 C-74 67.01 -74 66.02 -74 65 C-71.36 64.67 -68.72 64.34 -66 64 C-66 63.01 -66 62.02 -66 61 C-64.72125 60.87625 -63.4425 60.7525 -62.125 60.625 C-58.65209064 60.30957601 -58.65209064 60.30957601 -56 58 C-52.875 57.875 -52.875 57.875 -50 58 C-50 57.34 -50 56.68 -50 56 C-38.34990835 53.33712191 -22.16740443 51.23746751 -11.09765625 56.98828125 C-9.70878443 57.96013812 -8.35213744 58.97765218 -7 60 C-5.34080104 60.36871088 -3.6752357 60.71281674 -2 61 C-1.67 61.66 -1.34 62.32 -1 63 C3.95 62.67 8.9 62.34 14 62 C14 59.36 14 56.72 14 54 C14.515625 54.165 15.03125 54.33 15.5625 54.5 C20.22348493 55.45609947 23.68853994 55.76977004 27.875 53.3125 C30.19628348 50.78639739 30.71897086 49.37234971 31 46 C32.98 46.495 32.98 46.495 35 47 C35.103125 46.360625 35.20625 45.72125 35.3125 45.0625 C35.539375 44.381875 35.76625 43.70125 36 43 C36.99 42.67 37.98 42.34 39 42 C39 41.01 39 40.02 39 39 C39.928125 38.95875 40.85625 38.9175 41.8125 38.875 C45.28947638 38.31140969 45.28947638 38.31140969 46.875 34.9375 C47.431875 33.4834375 47.431875 33.4834375 48 32 C47.34 32 46.68 32 46 32 C46 31.34 46 30.68 46 30 C45.278125 29.7525 44.55625 29.505 43.8125 29.25 C39.86043856 27.49352825 36.95973113 25.29194576 34.375 21.8125 C33.04117487 19.70001167 33.04117487 19.70001167 30 19 C30 18.34 30 17.68 30 17 C29.46375 16.731875 28.9275 16.46375 28.375 16.1875 C25.58333333 14.79166667 22.79166667 13.39583333 20 12 C20 11.01 20 10.02 20 9 C18.68 9.33 17.36 9.66 16 10 C15.01 8.515 15.01 8.515 14 7 C11.58392583 6.20201782 11.58392583 6.20201782 8.875 5.8125 C7.96492188 5.65394531 7.05484375 5.49539062 6.1171875 5.33203125 C5.41851562 5.22246094 4.71984375 5.11289063 4 5 C4 4.34 4 3.68 4 3 C2.68 3 1.36 3 0 3 C0 2.01 0 1.02 0 0 Z " fill="#D96E23" transform="translate(326,170)"/>
<path d="M0 0 C0.33 0.66 0.66 1.32 1 2 C-0.16612745 4.47086437 -1.38961608 6.84966966 -2.6875 9.25 C-6.55632153 16.67629105 -9.09021948 23.82197944 -11 32 C-11.16712997 32.65235123 -11.33425995 33.30470245 -11.50645447 33.9768219 C-12.84396981 39.44903732 -13.28213815 44.53583591 -13.23046875 50.15625 C-13.23001053 50.98459351 -13.22955231 51.81293701 -13.2290802 52.66638184 C-13.22608477 54.39739434 -13.21828105 56.12840482 -13.20581055 57.859375 C-13.18735487 60.52092902 -13.1853026 63.18213815 -13.18554688 65.84375 C-13.18063809 67.53125303 -13.17481258 69.21875371 -13.16796875 70.90625 C-13.16685593 71.70405884 -13.1657431 72.50186768 -13.16459656 73.32385254 C-13.47429477 76.96141138 -13.47429477 76.96141138 -12 80 C-11.95907063 82.33297433 -11.95758277 84.66705225 -12 87 C-10.02 86.505 -10.02 86.505 -8 86 C-7.67 84.68 -7.34 83.36 -7 82 C-5.68 82 -4.36 82 -3 82 C-2.79375 81.319375 -2.5875 80.63875 -2.375 79.9375 C-0.54962437 76.03783387 1.73157833 72.82890286 5 70 C7.875 69.5625 7.875 69.5625 10 70 C10.66 68.02 11.32 66.04 12 64 C15.465 63.505 15.465 63.505 19 63 C19 61.35 19 59.7 19 58 C19.886875 57.566875 20.77375 57.13375 21.6875 56.6875 C25.19511521 54.90060168 28.56430448 53.10412612 31.69140625 50.69921875 C36.43805237 47.05978166 36.43805237 47.05978166 39.9375 46.6875 C40.618125 46.790625 41.29875 46.89375 42 47 C41.9175 45.7625 41.835 44.525 41.75 43.25 C41.75691545 39.3151096 41.75691545 39.3151096 43.6875 36.8125 C44.450625 36.214375 45.21375 35.61625 46 35 C50.34872638 31.2876726 51.84785875 28.29800855 53.2265625 22.890625 C53.48179687 22.26671875 53.73703125 21.6428125 54 21 C54.99 20.67 55.98 20.34 57 20 C57.66 20.33 58.32 20.66 59 21 C59 20.01 59 19.02 59 18 C60.98 18.495 60.98 18.495 63 19 C62.47792969 19.50144531 61.95585937 20.00289062 61.41796875 20.51953125 C56.00499227 26.08418483 52.41200547 31.63596712 48.75 38.4375 C43.81223944 47.42610793 38.25854375 53.07735822 30 59 C28.02075498 60.49989661 26.04158665 61.99989443 24.0625 63.5 C23.08796875 64.22058594 22.1134375 64.94117188 21.109375 65.68359375 C12.65903342 71.97888591 4.36321615 78.42247207 -3.328125 85.63671875 C-5 87 -5 87 -7 87 C-7 87.66 -7 88.32 -7 89 C-10 91 -10 91 -12.625 90.75 C-13.800625 90.37875 -13.800625 90.37875 -15 90 C-23.94916217 72.10167566 -16.49016013 38.25088234 -10.53515625 20.0390625 C-8.2285644 13.60694845 -4.89137879 4.89137879 0 0 Z " fill="#CE6133" transform="translate(185,225)"/>
<path d="M0 0 C1.125 3.75 1.125 3.75 0 6 C-4.21362288 8.54777197 -7.11558053 9.2271823 -12 9 C-12.33 9.33 -12.66 9.66 -13 10 C-20.27759001 12.03200548 -27.03776227 12.24292838 -34.5625 12.125 C-35.66658203 12.11597656 -36.77066406 12.10695313 -37.90820312 12.09765625 C-40.6057017 12.07430128 -43.30273077 12.04155054 -46 12 C-45.88270629 18.81776117 -45.75787045 25.63535373 -45.62768555 32.45288086 C-45.58426261 34.77413773 -45.54259316 37.09542808 -45.50268555 39.41674805 C-45.4451606 42.74538278 -45.38141575 46.07384785 -45.31640625 49.40234375 C-45.29133751 50.96951393 -45.29133751 50.96951393 -45.26576233 52.56834412 C-45.24581711 53.52926468 -45.22587189 54.49018524 -45.20532227 55.48022461 C-45.18200584 56.75596596 -45.18200584 56.75596596 -45.15821838 58.05747986 C-45.21055171 60.00523798 -45.21055171 60.00523798 -44 61 C-41.73327489 61.14669158 -39.4622379 61.2275397 -37.19140625 61.28125 C-36.50948715 61.29965942 -35.82756805 61.31806885 -35.12498474 61.33703613 C-32.93757985 61.39594939 -30.75009557 61.44868514 -28.5625 61.5 C-25.68863359 61.56757581 -22.81502102 61.64128117 -19.94140625 61.71875 C-18.65951416 61.74904297 -17.37762207 61.77933594 -16.05688477 61.81054688 C-13 62 -13 62 -11 63 C-11.495 64.98 -11.495 64.98 -12 67 C-13.32451172 66.75056641 -13.32451172 66.75056641 -14.67578125 66.49609375 C-21.62641146 65.50064734 -28.74865489 66.00024992 -35.74804688 66.12695312 C-36.87662109 66.13791016 -38.00519531 66.14886719 -39.16796875 66.16015625 C-40.19172607 66.17699463 -41.2154834 66.19383301 -42.27026367 66.21118164 C-45.0367074 65.99716019 -46.64792643 65.42374359 -49 64 C-49.16109319 46.30701062 -48.7113071 28.67673803 -48 11 C-45.32768228 9.66384114 -42.82139199 9.80972227 -39.88085938 9.71020508 C-25.51983121 9.22189654 -12.34308183 8.0805345 0 0 Z " fill="#D68E38" transform="translate(346,244)"/>
<path d="M0 0 C2.625 0.6875 2.625 0.6875 5.125 3.6875 C12.67195346 17.22409906 14.87017758 31.85681959 10.671875 46.828125 C8.48623137 52.79786805 5.39900121 58.24471755 0.6875 62.5625 C0.006875 63.26375 -0.67375 63.965 -1.375 64.6875 C-1.28347363 67.79939674 -0.14383749 69.03424377 1.625 71.6875 C0.635 72.1825 0.635 72.1825 -0.375 72.6875 C-3 71.75 -3 71.75 -5.375 70.6875 C-4.51785714 62.11607143 -4.51785714 62.11607143 -2.375 58.6875 C-0.725 58.6875 0.925 58.6875 2.625 58.6875 C2.74875 58.171875 2.8725 57.65625 3 57.125 C3.81141628 53.96047649 4.7195913 50.82625015 5.625 47.6875 C6.285 47.6875 6.945 47.6875 7.625 47.6875 C7.439375 46.90375 7.25375 46.12 7.0625 45.3125 C6.625 42.6875 6.625 42.6875 7.625 40.6875 C7.86252513 37.56813641 7.81018682 34.4399207 7.8125 31.3125 C7.83086914 30.01699219 7.83086914 30.01699219 7.84960938 28.6953125 C7.85154297 27.86 7.85347656 27.0246875 7.85546875 26.1640625 C7.85957764 25.40174316 7.86368652 24.63942383 7.86791992 23.85400391 C7.59397447 21.41079596 6.78776384 19.83452954 5.625 17.6875 C5.2109375 15.328125 5.2109375 15.328125 5 12.9375 C4.92523438 12.13828125 4.85046875 11.3390625 4.7734375 10.515625 C4.72445313 9.91234375 4.67546875 9.3090625 4.625 8.6875 C3.635 8.3575 2.645 8.0275 1.625 7.6875 C1.625 7.0275 1.625 6.3675 1.625 5.6875 C-2.4948241 7.31988314 -5.31004465 8.46929689 -8.375 11.6875 C-9.365 11.6875 -10.355 11.6875 -11.375 11.6875 C-11.375 12.3475 -11.375 13.0075 -11.375 13.6875 C-12.035 13.6875 -12.695 13.6875 -13.375 13.6875 C-13.375 14.3475 -13.375 15.0075 -13.375 15.6875 C-14.014375 15.790625 -14.65375 15.89375 -15.3125 16 C-15.993125 16.226875 -16.67375 16.45375 -17.375 16.6875 C-17.705 17.6775 -18.035 18.6675 -18.375 19.6875 C-20.355 20.0175 -22.335 20.3475 -24.375 20.6875 C-20.52896498 16.72447532 -16.46819312 13.12354303 -12.25 9.5625 C-11.01724083 8.51939608 -9.78543649 7.47516245 -8.5546875 6.4296875 C-8.01569824 5.9744873 -7.47670898 5.51928711 -6.92138672 5.05029297 C-5.33073686 3.68855133 -5.33073686 3.68855133 -3.82470703 2.05908203 C-2.375 0.6875 -2.375 0.6875 0 0 Z " fill="#D47B35" transform="translate(385.375,212.3125)"/>
<path d="M0 0 C0.99 0.99 0.99 0.99 2 2 C0.71802734 2.18175781 0.71802734 2.18175781 -0.58984375 2.3671875 C-2.24693359 2.61855469 -2.24693359 2.61855469 -3.9375 2.875 C-5.03964844 3.03742188 -6.14179688 3.19984375 -7.27734375 3.3671875 C-8.17582031 3.57601562 -9.07429688 3.78484375 -10 4 C-10.33 4.66 -10.66 5.32 -11 6 C-13.07635565 6.76741178 -15.18791537 7.44095856 -17.3125 8.0625 C-18.46363281 8.40410156 -19.61476562 8.74570313 -20.80078125 9.09765625 C-23.1942965 9.7727503 -25.58204018 10.4208837 -28 11 C-28 11.99 -28 12.98 -28 14 C-31.08809695 15.76462683 -32.23312136 16 -36 16 C-36 16.66 -36 17.32 -36 18 C-37.65 18.33 -39.3 18.66 -41 19 C-41 19.66 -41 20.32 -41 21 C-41.78375 21.226875 -42.5675 21.45375 -43.375 21.6875 C-46.2197245 22.74653828 -46.2197245 22.74653828 -47 25.5 C-48 28 -48 28 -50.625 29.3125 C-51.40875 29.539375 -52.1925 29.76625 -53 30 C-53 30.66 -53 31.32 -53 32 C-53.5775 32.185625 -54.155 32.37125 -54.75 32.5625 C-57.47238538 34.30180177 -58.31746245 36.30923142 -59.79296875 39.11328125 C-61.87774674 42.3720119 -64.80232203 44.84983723 -68 47 C-68.66 47 -69.32 47 -70 47 C-70.33 47.99 -70.66 48.98 -71 50 C-71.99 50 -72.98 50 -74 50 C-74 50.66 -74 51.32 -74 52 C-74.66 52 -75.32 52 -76 52 C-68.88546472 31.28962505 -44.57500418 17.23903365 -26.05859375 8.015625 C-5.67587358 -1.89195786 -5.67587358 -1.89195786 0 0 Z " fill="#D89125" transform="translate(264,169)"/>
<path d="M0 0 C2.05078125 0.03255208 4.1015625 0.06510417 6.15234375 0.09765625 C3.15234375 2.09765625 3.15234375 2.09765625 0.15234375 2.09765625 C-0.17765625 21.89765625 -0.50765625 41.69765625 -0.84765625 62.09765625 C3.77234375 61.76765625 8.39234375 61.43765625 13.15234375 61.09765625 C13.48234375 60.43765625 13.81234375 59.77765625 14.15234375 59.09765625 C20.04494236 57.44609747 26.055159 56.82667026 32.15234375 57.09765625 C32.48234375 55.77765625 32.81234375 54.45765625 33.15234375 53.09765625 C34.3125 52.95070313 34.3125 52.95070313 35.49609375 52.80078125 C42.20191774 51.83806394 47.24308249 50.38057917 53.15234375 47.09765625 C53.81234375 47.09765625 54.47234375 47.09765625 55.15234375 47.09765625 C55.15234375 47.75765625 55.15234375 48.41765625 55.15234375 49.09765625 C44.37757173 54.47170715 33.78778815 58.96015105 22.15234375 62.09765625 C21.2396875 62.34386719 20.32703125 62.59007812 19.38671875 62.84375 C12.78502197 64.38769521 5.89961438 64.76453765 -0.84765625 64.09765625 C-2.84765625 62.09765625 -2.84765625 62.09765625 -3.09489441 59.54808044 C-3.09346939 58.47187943 -3.09204437 57.39567841 -3.09057617 56.28686523 C-3.0936528 55.06897812 -3.09672943 53.851091 -3.09989929 52.59629822 C-3.09300208 51.26211356 -3.08573515 49.92793078 -3.078125 48.59375 C-3.07693327 47.23136946 -3.07648002 45.86898809 -3.07673645 44.50660706 C-3.07517148 41.65091817 -3.06688005 38.79535463 -3.0534668 35.93969727 C-3.03646078 32.27189738 -3.0326529 28.60423511 -3.03341198 24.93640041 C-3.03314061 22.12350643 -3.02766506 19.31064278 -3.02041054 16.49775887 C-3.01721976 15.14491061 -3.01525551 13.7920589 -3.01451683 12.43920708 C-3.01235852 10.55247646 -3.002829 8.66575856 -2.99291992 6.77905273 C-2.98910812 5.70364731 -2.98529633 4.62824188 -2.98136902 3.52024841 C-2.79522645 0.14773924 -2.79522645 0.14773924 0 0 Z " fill="#C07657" transform="translate(301.84765625,352.90234375)"/>
<path d="M0 0 C2.62651431 0.28119857 5.25069335 0.57443838 7.875 0.875 C8.62136719 0.95363281 9.36773437 1.03226562 10.13671875 1.11328125 C15.7734375 1.7734375 15.7734375 1.7734375 18 4 C18.24723816 6.58753967 18.24723816 6.58753967 18.24291992 9.90258789 C18.24753487 11.75944969 18.24753487 11.75944969 18.25224304 13.65382385 C18.24534583 15.0101032 18.2380789 16.36638071 18.23046875 17.72265625 C18.22927703 19.10745704 18.22882377 20.49225865 18.2290802 21.87705994 C18.22751518 24.77982642 18.21922339 27.68246961 18.20581055 30.58520508 C18.18880479 34.31353857 18.18499664 38.04173668 18.18575573 41.77010441 C18.18548437 44.62932131 18.18000887 47.48850837 18.17275429 50.34771538 C18.16956343 51.72289237 18.16759924 53.09807275 18.16686058 54.47325325 C18.16470235 56.39111668 18.15517294 58.3089676 18.14526367 60.22680664 C18.14145187 61.31997696 18.13764008 62.41314728 18.13371277 63.53944397 C18 66 18 66 17 67 C-5.92148436 68.85596693 -30.19059274 59.53960484 -49 47 C-49 46.34 -49 45.68 -49 45 C-45.63241417 46.2518251 -42.79810339 47.702536 -39.8125 49.6875 C-22.38235168 60.25436555 -3.9967324 62.50040845 16 65 C16 44.87 16 24.74 16 4 C13.03 4 10.06 4 7 4 C2.9375 3 2.9375 3 0 2 C0 1.34 0 0.68 0 0 Z " fill="#494545" transform="translate(272,351)"/>
<path d="M0 0 C9.24555877 1.32079411 16.86597669 5.65650967 25 10 C26.05832031 10.54785156 27.11664063 11.09570312 28.20703125 11.66015625 C34.17845033 14.91366035 39.38860321 18.74513689 44.5625 23.125 C45.15885254 23.62805664 45.75520508 24.13111328 46.36962891 24.64941406 C49.61898567 27.49014668 51.99575479 30.1056303 54 34 C51.61042731 37.24299151 49.7952131 39.50902342 46 41 C46.33 40.01 46.66 39.02 47 38 C47.66 37.67 48.32 37.34 49 37 C49.65772428 33.97065509 49.65772428 33.97065509 50 31 C49.01 30.34 48.02 29.68 47 29 C46.01 29.33 45.02 29.66 44 30 C42.0625 28.92578125 42.0625 28.92578125 40 27.3125 C39.319375 26.79300781 38.63875 26.27351563 37.9375 25.73828125 C36 24 36 24 34.4375 21.85546875 C33.04833382 19.70706792 33.04833382 19.70706792 30 19 C30 18.34 30 17.68 30 17 C29.46375 16.731875 28.9275 16.46375 28.375 16.1875 C25.58333333 14.79166667 22.79166667 13.39583333 20 12 C20 11.01 20 10.02 20 9 C18.68 9.33 17.36 9.66 16 10 C15.34 9.01 14.68 8.02 14 7 C11.58392583 6.20201782 11.58392583 6.20201782 8.875 5.8125 C7.96492188 5.65394531 7.05484375 5.49539062 6.1171875 5.33203125 C5.41851562 5.22246094 4.71984375 5.11289063 4 5 C4 4.34 4 3.68 4 3 C2.68 3 1.36 3 0 3 C0 2.01 0 1.02 0 0 Z " fill="#D16B2B" transform="translate(326,170)"/>
<path d="M0 0 C0.99 0 1.98 0 3 0 C3.57263539 4.86740078 1.75756835 7.10696233 -1 11 C-1.67966676 12.66140763 -2.34938905 14.32700041 -3 16 C-3.66 16.66 -4.32 17.32 -5 18 C-5.74129023 19.85322557 -6.47187979 21.71174432 -7.13671875 23.59375 C-7.74719567 25.29535083 -8.40003354 26.9820318 -9.08203125 28.65625 C-11.18695637 33.95203333 -12.44526324 38.21285942 -11.9453125 43.9296875 C-12 46 -12 46 -12.98681641 48.17944336 C-14.23345491 51.64990472 -14.25902575 54.51377238 -14.265625 58.19921875 C-14.26753845 58.87547806 -14.2694519 59.55173737 -14.27142334 60.24848938 C-14.27277813 61.66965103 -14.26913124 63.09082535 -14.26074219 64.51196289 C-14.24998174 66.6911978 -14.26068641 68.8696178 -14.2734375 71.04882812 C-14.27211676 72.43229349 -14.26955614 73.81575834 -14.265625 75.19921875 C-14.26336914 76.45565186 -14.26111328 77.71208496 -14.25878906 79.0065918 C-14.31348956 82.11556024 -14.31348956 82.11556024 -12 84 C-12.495 84.99 -12.495 84.99 -13 86 C-9.9254644 85.2236068 -9.9254644 85.2236068 -8 83 C-7.01 83.33 -6.02 83.66 -5 84 C-5 84.66 -5 85.32 -5 86 C-6.32 86 -7.64 86 -9 86 C-9.33 87.65 -9.66 89.3 -10 91 C-11.32 91 -12.64 91 -14 91 C-14.2165625 89.2984375 -14.2165625 89.2984375 -14.4375 87.5625 C-14.61171478 84.19222799 -14.61171478 84.19222799 -16 83 C-16.16398962 80.45710592 -16.2614549 77.94444632 -16.30859375 75.3984375 C-16.32394669 74.61829285 -16.33929962 73.83814819 -16.3551178 73.03436279 C-16.72506876 49.87368517 -15.16692678 29.7944738 -3.63671875 9.1796875 C-2.16559002 6.32169517 -1.48842713 4.137426 -1 1 C-0.67 0.67 -0.34 0.34 0 0 Z " fill="#CF7532" transform="translate(187,221)"/>
<path d="M0 0 C1.70174224 2.48170744 2.95602351 4.88876536 4.0625 7.6875 C4.88303421 10.1427942 4.88303421 10.1427942 7 12 C7.23046875 14.2421875 7.23046875 14.2421875 7.1875 16.875 C7.18105469 17.73867188 7.17460937 18.60234375 7.16796875 19.4921875 C7.01393667 21.79192226 6.64161776 23.79283489 6 26 C4.68 26.33 3.36 26.66 2 27 C2.12375 27.7425 2.2475 28.485 2.375 29.25 C2 32 2 32 -0.8125 34.3125 C-4 36 -4 36 -7 36 C-7.06703125 36.62261719 -7.1340625 37.24523437 -7.203125 37.88671875 C-8 40 -8 40 -10.109375 41.08203125 C-10.98078125 41.32308594 -11.8521875 41.56414062 -12.75 41.8125 C-13.61109375 42.06644531 -14.4721875 42.32039063 -15.359375 42.58203125 C-18.21171419 43.03351097 -20.22627691 42.73334046 -23 42 C-19.30552446 39.53701631 -15.36881616 37.7094827 -11.35742188 35.83007812 C-5.83245963 33.1478844 -1.3197655 30.17122711 1.9375 24.8125 C3.43367581 19.44386916 3.72451144 14.12207089 0.94921875 9.09765625 C-1.27932565 6.27575329 -3.62151477 4.25129082 -7 3 C-7 2.34 -7 1.68 -7 1 C-2.25 0 -2.25 0 0 0 Z " fill="#C58442" transform="translate(343,309)"/>
<path d="M0 0 C0.33 0.66 0.66 1.32 1 2 C-0.16612745 4.47086437 -1.38961608 6.84966966 -2.6875 9.25 C-6.55632153 16.67629105 -9.09021948 23.82197944 -11 32 C-11.165 32.62656494 -11.33 33.25312988 -11.5 33.89868164 C-13.04123882 40.08592162 -13.34087585 46.02095165 -13.4140625 52.37890625 C-13.43342865 53.43158188 -13.4527948 54.48425751 -13.4727478 55.5688324 C-13.53207747 58.89997494 -13.57874133 62.23115292 -13.625 65.5625 C-13.66322272 67.83399866 -13.70227689 70.10548349 -13.7421875 72.37695312 C-13.83774015 77.91784513 -13.92292121 83.45882184 -14 89 C-14.66 88.67 -15.32 88.34 -16 88 C-22.08673339 59.65268926 -15.80035423 25.62115002 -1 1 C-0.67 0.67 -0.34 0.34 0 0 Z " fill="#C88662" transform="translate(185,225)"/>
<path d="M0 0 C-3.06246747 1.78409802 -5.22079273 2.22880021 -8.75 2.125 C-9.54921875 2.10695312 -10.3484375 2.08890625 -11.171875 2.0703125 C-11.77515625 2.04710937 -12.3784375 2.02390625 -13 2 C-13 1.67 -13 1.34 -13 1 C-15.475 0.505 -15.475 0.505 -18 0 C-18 -0.66 -18 -1.32 -18 -2 C-30.54 -2 -43.08 -2 -56 -2 C-56 -1.34 -56 -0.68 -56 0 C-57.65 -0.33 -59.3 -0.66 -61 -1 C-44.01244859 -10.58065696 -17.74448168 -4.58565257 0 0 Z " fill="#AE8A5D" transform="translate(326,169)"/>
<path d="M0 0 C3.11967185 0.81705691 3.4988865 1.45165307 5.25 4.0625 C7.87732293 8.6872514 9.3306142 13.55205064 10.625 18.6875 C9.635 19.1825 9.635 19.1825 8.625 19.6875 C7.965 16.7175 7.305 13.7475 6.625 10.6875 C5.965 10.6875 5.305 10.6875 4.625 10.6875 C4.625 10.0275 4.625 9.3675 4.625 8.6875 C3.635 8.3575 2.645 8.0275 1.625 7.6875 C1.625 7.0275 1.625 6.3675 1.625 5.6875 C-2.4948241 7.31988314 -5.31004465 8.46929689 -8.375 11.6875 C-9.365 11.6875 -10.355 11.6875 -11.375 11.6875 C-11.375 12.3475 -11.375 13.0075 -11.375 13.6875 C-12.035 13.6875 -12.695 13.6875 -13.375 13.6875 C-13.375 14.3475 -13.375 15.0075 -13.375 15.6875 C-14.014375 15.790625 -14.65375 15.89375 -15.3125 16 C-15.993125 16.226875 -16.67375 16.45375 -17.375 16.6875 C-17.705 17.6775 -18.035 18.6675 -18.375 19.6875 C-20.355 20.0175 -22.335 20.3475 -24.375 20.6875 C-20.52896498 16.72447532 -16.46819312 13.12354303 -12.25 9.5625 C-11.01724083 8.51939608 -9.78543649 7.47516245 -8.5546875 6.4296875 C-8.01569824 5.9744873 -7.47670898 5.51928711 -6.92138672 5.05029297 C-5.33073686 3.68855133 -5.33073686 3.68855133 -3.82470703 2.05908203 C-2.375 0.6875 -2.375 0.6875 0 0 Z " fill="#BC8147" transform="translate(385.375,212.3125)"/>
<path d="M0 0 C0.66 0.66 1.32 1.32 2 2 C0.71802734 2.18175781 0.71802734 2.18175781 -0.58984375 2.3671875 C-1.69457031 2.53476563 -2.79929687 2.70234375 -3.9375 2.875 C-5.03964844 3.03742188 -6.14179688 3.19984375 -7.27734375 3.3671875 C-8.17582031 3.57601562 -9.07429688 3.78484375 -10 4 C-10.33 4.66 -10.66 5.32 -11 6 C-13.07635565 6.76741178 -15.18791537 7.44095856 -17.3125 8.0625 C-19.03919922 8.57490234 -19.03919922 8.57490234 -20.80078125 9.09765625 C-23.1942965 9.7727503 -25.58204018 10.4208837 -28 11 C-28 11.99 -28 12.98 -28 14 C-31.08809695 15.76462683 -32.23312136 16 -36 16 C-36 16.66 -36 17.32 -36 18 C-37.65 18.33 -39.3 18.66 -41 19 C-41 19.66 -41 20.32 -41 21 C-43.70879335 22.35439668 -46.00933268 22.06501451 -49 22 C-39.74638371 14.24278634 -12.25460829 -4.08486943 0 0 Z " fill="#A5763B" transform="translate(264,169)"/>
<path d="M0 0 C0 0.66 0 1.32 0 2 C-14.96138643 9.46217665 -29.24299582 15.07753548 -46 17 C-44.74458443 14.48916886 -43.49936512 14.12874554 -41 13 C-41 12.67 -41 12.34 -41 12 C-34.93184478 10.77100654 -29.20104812 9.72439786 -23 10 C-22.67 8.68 -22.34 7.36 -22 6 C-21.2265625 5.90203125 -20.453125 5.8040625 -19.65625 5.703125 C-13.36245605 4.79956052 -5.72644573 0 0 0 Z " fill="#B66F54" transform="translate(357,400)"/>
<path d="M0 0 C0.66 0 1.32 0 2 0 C1.53861573 4.55815837 0.09657485 6.28328609 -3.375 9.1875 C-4.16648437 9.86167969 -4.95796875 10.53585937 -5.7734375 11.23046875 C-8 13 -8 13 -11 15 C-11.33 15.99 -11.66 16.98 -12 18 C-16.33160477 21.57693378 -20.44875968 23.29133102 -26 24 C-28.39688649 24.88971648 -30.67445751 25.93025045 -33 27 C-33.66 26.34 -34.32 25.68 -35 25 C-33.95199219 24.51080078 -33.95199219 24.51080078 -32.8828125 24.01171875 C-31.51769531 23.35623047 -31.51769531 23.35623047 -30.125 22.6875 C-29.22007812 22.25824219 -28.31515625 21.82898438 -27.3828125 21.38671875 C-24.73550524 20.0800612 -24.73550524 20.0800612 -23 17 C-21.01363702 16.29373761 -19.01151741 15.63106429 -17 15 C-13.32064321 13.17499082 -13.32064321 13.17499082 -11 10 C-9.865625 9.7525 -8.73125 9.505 -7.5625 9.25 C-6.386875 8.8375 -5.21125 8.425 -4 8 C-2.60380471 5.06201446 -2.60380471 5.06201446 -2 2 C-1.34 1.34 -0.68 0.68 0 0 Z " fill="#BE5B31" transform="translate(379,378)"/>
<path d="M0 0 C1.125 3.75 1.125 3.75 0 6 C-4.21362288 8.54777197 -7.11558053 9.2271823 -12 9 C-12.33 9.33 -12.66 9.66 -13 10 C-20.27759001 12.03200548 -27.03776227 12.24292838 -34.5625 12.125 C-35.66658203 12.11597656 -36.77066406 12.10695313 -37.90820312 12.09765625 C-40.6057017 12.07430128 -43.30273077 12.04155054 -46 12 C-46 11.34 -46 10.68 -46 10 C-44.8140625 9.96261719 -43.628125 9.92523438 -42.40625 9.88671875 C-27.24862079 9.31500019 -13.06161881 8.55093265 0 0 Z " fill="#A76F30" transform="translate(346,244)"/>
<path d="M0 0 C0.72711182 0.00718552 1.45422363 0.01437103 2.20336914 0.02177429 C3.32400757 0.02246162 3.32400757 0.02246162 4.46728516 0.02316284 C6.04762357 0.02618529 7.627959 0.03407141 9.20825195 0.0464325 C11.63121054 0.06467034 14.05378663 0.06694231 16.47680664 0.06669617 C18.01066412 0.07161212 19.544519 0.07744078 21.07836914 0.08427429 C22.16903687 0.08594353 22.16903687 0.08594353 23.28173828 0.08764648 C28.40872229 0.13616962 28.40872229 0.13616962 30.64086914 1.25224304 C30.31086914 2.57224304 29.98086914 3.89224304 29.64086914 5.25224304 C28.31635742 5.00280945 28.31635742 5.00280945 26.96508789 4.74833679 C20.01445768 3.75289038 12.89221425 4.25249297 5.89282227 4.37919617 C4.76424805 4.3901532 3.63567383 4.40111023 2.47290039 4.41239929 C0.9372644 4.43765686 0.9372644 4.43765686 -0.62939453 4.46342468 C-3.39583826 4.24940323 -5.00705729 3.67598663 -7.35913086 2.25224304 C-4.86645347 -0.24043435 -3.40126887 0.0155236 0 0 Z " fill="#D88224" transform="translate(304.359130859375,305.7477569580078)"/>
<path d="M0 0 C0.99 0.33 1.98 0.66 3 1 C2.0925 1.721875 1.185 2.44375 0.25 3.1875 C-1.75821639 4.85091822 -3.21488398 6.28157211 -4.8125 8.375 C-7.53172438 11.63806926 -10.66803062 13.93499478 -14.07421875 16.44921875 C-16.10597061 17.86515475 -16.10597061 17.86515475 -17 20 C-18.890625 20.9296875 -18.890625 20.9296875 -21.25 21.875 C-25.00677826 23.50213963 -28.15018182 24.97206818 -31 28 C-31.88593998 31.13863704 -31.88593998 31.13863704 -32 34 C-32.33 34 -32.66 34 -33 34 C-33.32421875 30.80078125 -33.32421875 30.80078125 -33 27 C-30.83203125 24.48046875 -30.83203125 24.48046875 -27.8125 22.1875 C-27.27657227 21.77008545 -26.74064453 21.3526709 -26.18847656 20.92260742 C-24.47401432 19.59402342 -22.73857583 18.29681052 -21 17 C-19.30018543 15.70034103 -17.60516092 14.39461823 -15.91040039 13.08837891 C-14.80990926 12.24274347 -13.70625233 11.40121091 -12.59936523 10.56396484 C-8.71256278 7.61299436 -5.09223722 4.47349582 -1.5859375 1.08203125 C-1.06257813 0.72496094 -0.53921875 0.36789062 0 0 Z " fill="#2E2927" transform="translate(208,299)"/>
<path d="M0 0 C0.66 0 1.32 0 2 0 C2.81200534 5.27803469 1.13055882 8.15471766 -1.828125 12.296875 C-4.58300704 15.72561308 -7.46949629 19.00492604 -10.4375 22.25 C-10.97463623 22.84039062 -11.51177246 23.43078125 -12.06518555 24.0390625 C-15.73178028 27.95068687 -19.55034214 31.00730976 -24 34 C-24 33.01 -24 32.02 -24 31 C-21.3522565 28.63995698 -18.53731084 26.57500537 -15.69921875 24.44921875 C-12.07525552 21.16090479 -10.53054178 17.83649079 -9.1875 13.1875 C-8.795625 12.465625 -8.40375 11.74375 -8 11 C-4.875 10.1875 -4.875 10.1875 -2 10 C-1.90912109 9.04287109 -1.90912109 9.04287109 -1.81640625 8.06640625 C-1.73261719 7.24011719 -1.64882813 6.41382813 -1.5625 5.5625 C-1.48128906 4.73878906 -1.40007812 3.91507812 -1.31640625 3.06640625 C-1 1 -1 1 0 0 Z " fill="#AC5F3F" transform="translate(392,361)"/>
<path d="M0 0 C1.32 0.33 2.64 0.66 4 1 C3.18208984 1.804375 3.18208984 1.804375 2.34765625 2.625 C-4.71450798 9.96482197 -9.29301027 18.03112595 -14 27 C-14.66 27 -15.32 27 -16 27 C-16.75 24.25 -16.75 24.25 -17 21 C-15.375 18.9375 -15.375 18.9375 -13 17 C-8.65127362 13.2876726 -7.15214125 10.29800855 -5.7734375 4.890625 C-5.51820313 4.26671875 -5.26296875 3.6428125 -5 3 C-4.01 2.67 -3.02 2.34 -2 2 C-1.34 2.33 -0.68 2.66 0 3 C0 2.01 0 1.02 0 0 Z " fill="#B5783B" transform="translate(244,243)"/>
<path d="M0 0 C0.66 0.33 1.32 0.66 2 1 C1.67547852 2.00248779 1.35095703 3.00497559 1.01660156 4.0378418 C-0.0715317 7.86172442 -0.25842759 11.40845144 -0.265625 15.39453125 C-0.26753845 16.06796066 -0.2694519 16.74139008 -0.27142334 17.43522644 C-0.27277374 18.84443541 -0.26915813 20.25365731 -0.26074219 21.6628418 C-0.24994086 23.82433571 -0.26071865 25.98501448 -0.2734375 28.14648438 C-0.27211735 29.52083517 -0.26955794 30.89518545 -0.265625 32.26953125 C-0.26336914 33.51323486 -0.26111328 34.75693848 -0.25878906 36.03833008 C-0.30933138 39.11924905 -0.30933138 39.11924905 2 41 C1.67 41.66 1.34 42.32 1 43 C4.0745356 42.2236068 4.0745356 42.2236068 6 40 C6.99 40.33 7.98 40.66 9 41 C9 41.66 9 42.32 9 43 C7.68 43 6.36 43 5 43 C4.505 45.475 4.505 45.475 4 48 C2.68 48 1.36 48 0 48 C-0.144375 46.865625 -0.28875 45.73125 -0.4375 44.5625 C-0.61171478 41.19222799 -0.61171478 41.19222799 -2 40 C-2.1134515 37.21176262 -2.16418263 34.44922655 -2.16796875 31.66015625 C-2.17129715 30.82286484 -2.17462555 29.98557343 -2.17805481 29.12290955 C-2.18312756 27.34830272 -2.18546303 25.57368633 -2.18530273 23.79907227 C-2.18748797 21.07747744 -2.20563633 18.35628857 -2.22460938 15.63476562 C-2.22754342 13.91406389 -2.22952814 12.19336023 -2.23046875 10.47265625 C-2.23765427 9.65491226 -2.24483978 8.83716827 -2.25224304 7.99464417 C-2.22882204 2.22882204 -2.22882204 2.22882204 0 0 Z " fill="#DC6129" transform="translate(173,264)"/>
<path d="M0 0 C2.475 1.485 2.475 1.485 5 3 C4.40138258 5.35171131 3.73075648 7.6859378 3 10 C2.01 10.495 2.01 10.495 1 11 C0.855625 11.639375 0.71125 12.27875 0.5625 12.9375 C0 15 0 15 -3 17 C-5.6875 16.625 -5.6875 16.625 -8 16 C-8.268125 16.639375 -8.53625 17.27875 -8.8125 17.9375 C-10 20 -10 20 -13 21 C-13.66 21.99 -14.32 22.98 -15 24 C-15.33 22.35 -15.66 20.7 -16 19 C-15.34 18.67 -14.68 18.34 -14 18 C-13.01 18.33 -12.02 18.66 -11 19 C-10.896875 18.360625 -10.79375 17.72125 -10.6875 17.0625 C-10.460625 16.381875 -10.23375 15.70125 -10 15 C-9.01 14.67 -8.02 14.34 -7 14 C-7 13.01 -7 12.02 -7 11 C-6.071875 10.95875 -5.14375 10.9175 -4.1875 10.875 C-0.71052362 10.31140969 -0.71052362 10.31140969 0.875 6.9375 C1.24625 5.968125 1.6175 4.99875 2 4 C1.34 4 0.68 4 0 4 C0 2.68 0 1.36 0 0 Z " fill="#C76A34" transform="translate(372,198)"/>
<path d="M0 0 C0 1.32 0 2.64 0 4 C-0.96421875 4.47050781 -1.9284375 4.94101563 -2.921875 5.42578125 C-4.19802296 6.05447179 -5.47405874 6.68339007 -6.75 7.3125 C-7.38421875 7.62123047 -8.0184375 7.92996094 -8.671875 8.24804688 C-12.03955522 9.91434698 -15.06584613 11.65538744 -18 14 C-19.1446875 14.6496875 -19.1446875 14.6496875 -20.3125 15.3125 C-23.85270305 17.5354182 -26.88396885 20.22520569 -30 23 C-30 22.01 -30 21.02 -30 20 C-29.34 19.67 -28.68 19.34 -28 19 C-27.5978125 17.7625 -27.5978125 17.7625 -27.1875 16.5 C-26.795625 15.675 -26.40375 14.85 -26 14 C-23.375 13.1875 -23.375 13.1875 -21 13 C-21 12.34 -21 11.68 -21 11 C-19.35 10.67 -17.7 10.34 -16 10 C-16 9.34 -16 8.68 -16 8 C-13.09399739 6.74335022 -11.20395416 6 -8 6 C-8 5.01 -8 4.02 -8 3 C-2.25 0 -2.25 0 0 0 Z " fill="#E18918" transform="translate(244,177)"/>
<path d="M0 0 C0.66 0.33 1.32 0.66 2 1 C-3.41253048 12.86150296 -3.41253048 12.86150296 -7.4375 16.5 C-8.7059375 17.7375 -8.7059375 17.7375 -10 19 C-9.66963286 22.0273643 -8.73602895 23.39595658 -7 26 C-7.66 26.33 -8.32 26.66 -9 27 C-11.625 26.0625 -11.625 26.0625 -14 25 C-13.14285714 16.42857143 -13.14285714 16.42857143 -11 13 C-9.35 13 -7.7 13 -6 13 C-5.87625 12.484375 -5.7525 11.96875 -5.625 11.4375 C-4.81358372 8.27297649 -3.9054087 5.13875015 -3 2 C-2.01 2 -1.02 2 0 2 C0 1.34 0 0.68 0 0 Z " fill="#B7733D" transform="translate(394,258)"/>
<path d="M0 0 C4.62 0 9.24 0 14 0 C10.29086588 2.47275608 7.72642364 2.35785843 3.375 2.55859375 C0.93342178 2.76592173 0.93342178 2.76592173 -0.39453125 4.5234375 C-2.93142007 6.85663452 -5.3409359 6.28690289 -8.6875 6.1875 C-10.45673828 6.14689453 -10.45673828 6.14689453 -12.26171875 6.10546875 C-13.61716797 6.05326172 -13.61716797 6.05326172 -15 6 C-15.66 7.32 -16.32 8.64 -17 10 C-19.31 10 -21.62 10 -24 10 C-21.35261084 8.5393715 -20.10551666 8 -17 8 C-16.67 7.01 -16.34 6.02 -16 5 C-14.906875 4.896875 -13.81375 4.79375 -12.6875 4.6875 C-9.06395521 4.38178243 -9.06395521 4.38178243 -7.4375 2.375 C-6.963125 1.92125 -6.48875 1.4675 -6 1 C-2.8125 1.3125 -2.8125 1.3125 0 2 C0 1.34 0 0.68 0 0 Z " fill="#DC8D30" transform="translate(270,167)"/>
<path d="M0 0 C0.33 1.32 0.66 2.64 1 4 C-2.04213267 5.52106634 -5.28047572 5.37429338 -8.625 5.5625 C-9.33140625 5.60568359 -10.0378125 5.64886719 -10.765625 5.69335938 C-12.51018537 5.79944751 -14.25506697 5.90022889 -16 6 C-16.33 9.63 -16.66 13.26 -17 17 C-17.33 17 -17.66 17 -18 17 C-18.02708567 15.39592672 -18.04643483 13.7917215 -18.0625 12.1875 C-18.07410156 11.29417969 -18.08570313 10.40085937 -18.09765625 9.48046875 C-18 7 -18 7 -17 4 C-15.02 3.67 -13.04 3.34 -11 3 C-11 2.34 -11 1.68 -11 1 C-7.26513121 0.4254048 -3.78706732 0 0 0 Z " fill="#BC6231" transform="translate(319,351)"/>
<path d="M0 0 C8.73595739 3.14616647 16.57930176 10.40731877 23 17 C23.33 17.99 23.66 18.98 24 20 C21.77407001 23.38011591 19.78717347 25.51218185 16 27 C16.33 26.01 16.66 25.02 17 24 C17.66 23.67 18.32 23.34 19 23 C20.36434855 20.33328612 20.36434855 20.33328612 20 17 C16.91983515 13.34695424 13.54527699 10.51509233 9 9 C9 8.34 9 7.68 9 7 C8.01 7 7.02 7 6 7 C4.6256709 5.70896357 3.29103643 4.3743291 2 3 C1.34 2.67 0.68 2.34 0 2 C0 1.34 0 0.68 0 0 Z " fill="#A9765A" transform="translate(356,184)"/>
<path d="M0 0 C0.33 0.66 0.66 1.32 1 2 C1.66 2.33 2.32 2.66 3 3 C-10.69238631 15.83801737 -10.69238631 15.83801737 -16 19 C-16.99 18.67 -17.98 18.34 -19 18 C-19 17.34 -19 16.68 -19 16 C-18.01 16 -17.02 16 -16 16 C-16 15.01 -16 14.02 -16 13 C-9.375 9 -9.375 9 -6 9 C-5.896875 8.360625 -5.79375 7.72125 -5.6875 7.0625 C-5.460625 6.381875 -5.23375 5.70125 -5 5 C-4.01 4.67 -3.02 4.34 -2 4 C-0.79117904 1.99983534 -0.79117904 1.99983534 0 0 Z " fill="#A26139" transform="translate(364,213)"/>
<path d="M0 0 C6.43718828 0.91959833 11.67585793 3.10369068 17.4375 6 C18.14777344 6.35642578 18.85804688 6.71285156 19.58984375 7.08007812 C22.38266597 8.51677033 24.76561668 9.76561668 27 12 C24.69 12 22.38 12 20 12 C20 11.01 20 10.02 20 9 C18.68 9.33 17.36 9.66 16 10 C15.34 9.01 14.68 8.02 14 7 C11.58392583 6.20201782 11.58392583 6.20201782 8.875 5.8125 C7.96492188 5.65394531 7.05484375 5.49539062 6.1171875 5.33203125 C5.41851562 5.22246094 4.71984375 5.11289063 4 5 C4 4.34 4 3.68 4 3 C2.68 3 1.36 3 0 3 C0 2.01 0 1.02 0 0 Z " fill="#B1713F" transform="translate(326,170)"/>
<path d="M0 0 C1.70174224 2.48170744 2.95602351 4.88876536 4.0625 7.6875 C4.88303421 10.1427942 4.88303421 10.1427942 7 12 C7.265625 14.2421875 7.265625 14.2421875 7.25 16.875 C7.25515625 17.73867188 7.2603125 18.60234375 7.265625 19.4921875 C6.98890649 22.10473577 6.3185995 23.7500088 5 26 C4.97301811 24.37509046 4.95361243 22.75005367 4.9375 21.125 C4.92589844 20.22007812 4.91429687 19.31515625 4.90234375 18.3828125 C5 16 5 16 6 14 C5.34 14 4.68 14 4 14 C4 13.01 4 12.02 4 11 C3.34 11 2.68 11 2 11 C0.75923923 9.49802644 -0.47921817 7.99387685 -1.69140625 6.46875 C-3.25534961 4.71339865 -4.80260134 3.81385136 -7 3 C-7 2.34 -7 1.68 -7 1 C-2.25 0 -2.25 0 0 0 Z " fill="#D67727" transform="translate(343,309)"/>
<path d="M0 0 C-0.75023437 0.29132813 -1.50046875 0.58265625 -2.2734375 0.8828125 C-9.276923 3.68773491 -15.65771243 6.91680159 -22 11 C-22.33 9.68 -22.66 8.36 -23 7 C-22.01 7 -21.02 7 -20 7 C-20 6.01 -20 5.02 -20 4 C-17.36 3.67 -14.72 3.34 -12 3 C-12 2.01 -12 1.02 -12 0 C-3.96428571 -1.20535714 -3.96428571 -1.20535714 0 0 Z " fill="#B47835" transform="translate(272,231)"/>
<path d="M0 0 C3.36758583 1.2518251 6.20189661 2.702536 9.1875 4.6875 C14.81977323 8.1712921 20.8165285 10.39334684 27.01831055 12.6394043 C32.90122615 14.80245231 32.90122615 14.80245231 34 17 C27.677272 15.8494875 22.19894396 14.01441681 16.4375 11.1875 C15.70023682 10.83220215 14.96297363 10.4769043 14.20336914 10.11083984 C9.25740585 7.69622331 4.46925557 5.2330785 0 2 C0 1.34 0 0.68 0 0 Z " fill="#7A7575" transform="translate(223,396)"/>
<path d="M0 0 C0.66 0.33 1.32 0.66 2 1 C2 3.31 2 5.62 2 8 C3.32 7.67 4.64 7.34 6 7 C6.33 5.68 6.66 4.36 7 3 C8.32 3.33 9.64 3.66 11 4 C10.34 5.32 9.68 6.64 9 8 C8.34 8 7.68 8 7 8 C7 8.66 7 9.32 7 10 C4 12 4 12 1.3125 11.625 C0.549375 11.41875 -0.21375 11.2125 -1 11 C-1.125 3.375 -1.125 3.375 0 0 Z " fill="#B6653E" transform="translate(171,304)"/>
<path d="M0 0 C1.16257324 0.0942627 2.32514648 0.18852539 3.52294922 0.28564453 C4.77978516 0.38232422 6.03662109 0.47900391 7.33154297 0.57861328 C8.66359367 0.69166555 9.9956247 0.80494982 11.32763672 0.91845703 C12.66740337 1.0249007 14.00724689 1.13038153 15.34716797 1.23486328 C18.63320488 1.49490937 21.9181297 1.76485199 25.20263672 2.04345703 C25.20263672 2.37345703 25.20263672 2.70345703 25.20263672 3.04345703 C20.9533806 3.26940529 16.70331228 3.47116829 12.45263672 3.66845703 C11.24607422 3.73291016 10.03951172 3.79736328 8.79638672 3.86376953 C7.63623047 3.91533203 6.47607422 3.96689453 5.28076172 4.02001953 C4.21245117 4.0723877 3.14414062 4.12475586 2.04345703 4.17871094 C-0.82679432 4.04205579 -2.37954993 3.53801254 -4.79736328 2.04345703 C-2.79736328 0.04345703 -2.79736328 0.04345703 0 0 Z " fill="#AC763E" transform="translate(301.79736328125,305.95654296875)"/>
<path d="M0 0 C0.66 0.33 1.32 0.66 2 1 C1.91433603 3.912575 1.42089045 5.56798024 -0.625 7.66796875 C-2.38391375 9.16091772 -4.16313019 10.60436262 -6 12 C-6.33 11.34 -6.66 10.68 -7 10 C-7.66 9.67 -8.32 9.34 -9 9 C-8.375 6.625 -8.375 6.625 -7 4 C-3.9375 2.8125 -3.9375 2.8125 -1 2 C-0.67 1.34 -0.34 0.68 0 0 Z " fill="#E78307" transform="translate(354,242)"/>
<path d="M0 0 C2.17515642 3.51635959 2.23948201 6.34982397 2.1875 10.4375 C2.18105469 11.54996094 2.17460937 12.66242188 2.16796875 13.80859375 C2.01836796 16.65100884 1.64625807 19.23401547 1 22 C-1 20 -1 20 -1.24291992 18.15234375 C-1.23881104 17.42144531 -1.23470215 16.69054687 -1.23046875 15.9375 C-1.22853516 15.14085937 -1.22660156 14.34421875 -1.22460938 13.5234375 C-1.21236328 12.69070312 -1.20011719 11.85796875 -1.1875 11 C-1.18685547 10.16726562 -1.18621094 9.33453125 -1.18554688 8.4765625 C-1.14043257 2.28086515 -1.14043257 2.28086515 0 0 Z " fill="#885530" transform="translate(396,233)"/>
<path d="M0 0 C-1.00422667 2.70972895 -1.56554914 3.78700374 -4.20703125 5.08203125 C-5.06683594 5.32308594 -5.92664063 5.56414062 -6.8125 5.8125 C-8.09060547 6.19341797 -8.09060547 6.19341797 -9.39453125 6.58203125 C-12.23110054 7.0370731 -14.24032848 6.72831546 -17 6 C-14.2158421 4.14389474 -11.52389217 2.73096555 -8.5 1.3125 C-7.5409375 0.85488281 -6.581875 0.39726562 -5.59375 -0.07421875 C-3 -1 -3 -1 0 0 Z " fill="#C07932" transform="translate(337,345)"/>
<path d="M0 0 C2.625 -0.1875 2.625 -0.1875 5 0 C4.34 1.98 3.68 3.96 3 6 C2.154375 6.103125 1.30875 6.20625 0.4375 6.3125 C-3.41442701 7.0828854 -6.44075031 8.36274514 -10 10 C-10.66 9.34 -11.32 8.68 -12 8 C-10.95199219 7.51080078 -10.95199219 7.51080078 -9.8828125 7.01171875 C-8.97273438 6.57472656 -8.06265625 6.13773437 -7.125 5.6875 C-6.22007812 5.25824219 -5.31515625 4.82898438 -4.3828125 4.38671875 C-1.73550524 3.0800612 -1.73550524 3.0800612 0 0 Z " fill="#C15B2E" transform="translate(356,395)"/>
<path d="M0 0 C4.57657243 3.92277637 6.10045659 8.52937054 6.6875 14.375 C6.80340305 15.91582877 6.91158724 17.45734969 7 19 C6.01 19 5.02 19 4 19 C3.87882812 18.15695312 3.75765625 17.31390625 3.6328125 16.4453125 C3.46523438 15.34960938 3.29765625 14.25390625 3.125 13.125 C2.96257812 12.03445313 2.80015625 10.94390625 2.6328125 9.8203125 C2.23743487 6.88067286 2.23743487 6.88067286 0 5 C-0.125 2.375 -0.125 2.375 0 0 Z " fill="#B87148" transform="translate(396,295)"/>
<path d="M0 0 C4 0 4 0 6 1 C0.72 5.29 -4.56 9.58 -10 14 C-10 11.37886292 -9.68707555 9.49064888 -9 7 C-7.35 7 -5.7 7 -4 7 C-3.566875 6.0409375 -3.566875 6.0409375 -3.125 5.0625 C-2 3 -2 3 0 2 C0 1.34 0 0.68 0 0 Z " fill="#B46448" transform="translate(198,291)"/>
<path d="M0 0 C1.32 0.33 2.64 0.66 4 1 C-6.67211838 7.01246106 -6.67211838 7.01246106 -13 6 C-14.32 5.01 -15.64 4.02 -17 3 C-8.585 2.505 -8.585 2.505 0 2 C0 1.34 0 0.68 0 0 Z " fill="#9F6033" transform="translate(342,232)"/>
<path d="M0 0 C0.99 0.66 1.98 1.32 3 2 C2.01 2 1.02 2 0 2 C-0.33 3.65 -0.66 5.3 -1 7 C-1.99 6.67 -2.98 6.34 -4 6 C-4.268125 6.639375 -4.53625 7.27875 -4.8125 7.9375 C-6 10 -6 10 -9 11 C-9.66 11.99 -10.32 12.98 -11 14 C-11.33 12.35 -11.66 10.7 -12 9 C-11.34 8.67 -10.68 8.34 -10 8 C-9.01 8.33 -8.02 8.66 -7 9 C-6.896875 8.360625 -6.79375 7.72125 -6.6875 7.0625 C-6.460625 6.381875 -6.23375 5.70125 -6 5 C-5.01 4.67 -4.02 4.34 -3 4 C-3 3.01 -3 2.02 -3 1 C-2.01 0.67 -1.02 0.34 0 0 Z " fill="#DD6726" transform="translate(368,208)"/>
<path d="M0 0 C1.125 3.75 1.125 3.75 0 6 C0.66 6 1.32 6 2 6 C2 8.31 2 10.62 2 13 C1.01 13 0.02 13 -1 13 C-2.68798827 14.43750191 -2.68798827 14.43750191 -4 16 C-3.47606294 10.13190493 -2.23891142 5.45126259 0 0 Z " fill="#E06823" transform="translate(178,247)"/>
<path d="M0 0 C0.33 0.66 0.66 1.32 1 2 C-0.50823029 5.3713383 -1.83176403 6.88903585 -4.9375 8.9375 C-8.35895968 11.24174836 -9.87464442 13.50834441 -12 17 C-12.66 17.66 -13.32 18.32 -14 19 C-14 16.69 -14 14.38 -14 12 C-13.01 11.67 -12.02 11.34 -11 11 C-9.64426252 9.68945377 -8.31387169 8.35251497 -7 7 C-6.13375 6.319375 -5.2675 5.63875 -4.375 4.9375 C-1.81772804 3.04518507 -1.81772804 3.04518507 0 0 Z " fill="#E48F07" transform="translate(204,207)"/>
<path d="M0 0 C4.62 0 9.24 0 14 0 C14 0.66 14 1.32 14 2 C11.62561751 2.3383344 9.25065041 2.67079002 6.875 3 C6.20984375 3.09539062 5.5446875 3.19078125 4.859375 3.2890625 C0.87371019 3.83611453 -2.97859938 4.10022182 -7 4 C-6.67 3.34 -6.34 2.68 -6 2 C-4.02 2 -2.04 2 0 2 C0 1.34 0 0.68 0 0 Z " fill="#BB7F4B" transform="translate(276,226)"/>
<path d="M0 0 C0.33 1.32 0.66 2.64 1 4 C0.1646875 4.3403125 0.1646875 4.3403125 -0.6875 4.6875 C-3.64187072 6.36430501 -5.63102343 8.57324352 -8 11 C-9.64864545 12.35555293 -11.31003995 13.69631653 -13 15 C-13.66 14.67 -14.32 14.34 -15 14 C-13.44073252 12.41348318 -11.87743482 10.83092685 -10.3125 9.25 C-9.44238281 8.36828125 -8.57226562 7.4865625 -7.67578125 6.578125 C-5.21997532 4.21194702 -2.69858952 2.08107444 0 0 Z " fill="#B8935B" transform="translate(213,192)"/>
<path d="M0 0 C0 0.99 0 1.98 0 3 C-1.91849565 4.83635822 -3.80376051 6.48033157 -5.875 8.125 C-6.43058594 8.58003906 -6.98617187 9.03507812 -7.55859375 9.50390625 C-11.6457529 12.82287645 -11.6457529 12.82287645 -14 14 C-14.65772428 17.02934491 -14.65772428 17.02934491 -15 20 C-15.33 20 -15.66 20 -16 20 C-16.359375 16.828125 -16.359375 16.828125 -16 13 C-14.07411148 10.85608636 -12.52447102 9.41089279 -10.25 7.75 C-9.71117187 7.32976562 -9.17234375 6.90953125 -8.6171875 6.4765625 C-7.09485033 5.29582294 -5.54796383 4.14693693 -4 3 C-3.21109375 2.40703125 -2.4221875 1.8140625 -1.609375 1.203125 C-1.07828125 0.80609375 -0.5471875 0.4090625 0 0 Z " fill="#545252" transform="translate(191,313)"/>
<path d="M0 0 C0.66 0 1.32 0 2 0 C3.51012131 2.76543196 5.00630148 5.53816807 6.5 8.3125 C7.14388672 9.49102539 7.14388672 9.49102539 7.80078125 10.69335938 C8.20683594 11.45068359 8.61289063 12.20800781 9.03125 12.98828125 C9.40830078 13.68477783 9.78535156 14.38127441 10.17382812 15.09887695 C11 17 11 17 11 20 C0 6.46735395 0 6.46735395 0 0 Z " fill="#5D5858" transform="translate(229,311)"/>
<path d="M0 0 C0.66 0 1.32 0 2 0 C2 2.31 2 4.62 2 7 C0.02 7.99 -1.96 8.98 -4 10 C-4 9.34 -4 8.68 -4 8 C-4.66 8 -5.32 8 -6 8 C-5.67 8.99 -5.34 9.98 -5 11 C-5.99 11 -6.98 11 -8 11 C-7.67 9.35 -7.34 7.7 -7 6 C-3.535 5.505 -3.535 5.505 0 5 C0 3.35 0 1.7 0 0 Z " fill="#D35D2D" transform="translate(204,283)"/>
<path d="M0 0 C1 4 1 4 0 6 C-2.875 7.6875 -2.875 7.6875 -6 9 C-6.99 8.67 -7.98 8.34 -9 8 C-9 7.01 -9 6.02 -9 5 C-6.03 3.35 -3.06 1.7 0 0 Z " fill="#B67225" transform="translate(346,244)"/>
<path d="M0 0 C-2.99480917 0.8723412 -5.63575911 1.10829766 -8.75 1.0625 C-9.54921875 1.05347656 -10.3484375 1.04445312 -11.171875 1.03515625 C-11.77515625 1.02355469 -12.3784375 1.01195312 -13 1 C-13 0.67 -13 0.34 -13 0 C-14.65 -0.33 -16.3 -0.66 -18 -1 C-18 -1.33 -18 -1.66 -18 -2 C-11.912871 -3.767231 -5.51497407 -3.06387448 0 0 Z " fill="#A86938" transform="translate(326,170)"/>
<path d="M0 0 C0.66 0 1.32 0 2 0 C3.09506492 3.28519475 3.09960608 5.73663415 3.0625 9.1875 C3.05347656 10.27417969 3.04445313 11.36085938 3.03515625 12.48046875 C3.02355469 13.31191406 3.01195312 14.14335937 3 15 C0.984375 13.88671875 0.984375 13.88671875 -1 12 C-1.171875 9.08203125 -1.171875 9.08203125 -0.75 5.8125 C-0.62109375 4.72582031 -0.4921875 3.63914062 -0.359375 2.51953125 C-0.24078125 1.68808594 -0.1221875 0.85664063 0 0 Z " fill="#DF6F1B" transform="translate(397,302)"/>
<path d="M0 0 C0.66 0.33 1.32 0.66 2 1 C1.26962064 4.21517511 0.21912983 7.22669891 -0.9375 10.3125 C-2.48447353 14.50901728 -3.84796579 18.67987173 -5 23 C-6.68311025 19.63377951 -5.04787447 16.13649444 -4.1875 12.625 C-4.00896484 11.85671875 -3.83042969 11.0884375 -3.64648438 10.296875 C-2.77016683 6.63975197 -1.93204482 3.26961431 0 0 Z " fill="#D16933" transform="translate(178,242)"/>
<path d="M0 0 C0.33 0.99 0.66 1.98 1 3 C0.01 3.495 0.01 3.495 -1 4 C-1.268125 4.639375 -1.53625 5.27875 -1.8125 5.9375 C-3.40788165 8.70842602 -5.03256301 8.98672883 -8 10 C-8.99 10.66 -9.98 11.32 -11 12 C-11.66 11.34 -12.32 10.68 -13 10 C-11.58367866 8.89539041 -10.16692736 7.79133212 -8.75 6.6875 C-7.96109375 6.07261719 -7.1721875 5.45773438 -6.359375 4.82421875 C-4.2537703 3.19620982 -2.13390657 1.59064137 0 0 Z " fill="#A36F32" transform="translate(360,233)"/>
<path d="M0 0 C3.73704047 1.32711154 6.53123939 2.96568096 9.625 5.4375 C10.38039063 6.03433594 11.13578125 6.63117188 11.9140625 7.24609375 C13.71166217 8.75755864 15.37465179 10.3073603 17 12 C14.07120629 11.37240135 11.63904371 10.41377341 9 9 C9 8.34 9 7.68 9 7 C8.01 7 7.02 7 6 7 C4.6256709 5.70896357 3.29103643 4.3743291 2 3 C1.34 2.67 0.68 2.34 0 2 C0 1.34 0 0.68 0 0 Z " fill="#A37651" transform="translate(356,184)"/>
<path d="M0 0 C0.66 0.33 1.32 0.66 2 1 C2 1.99 2 2.98 2 4 C0.35 4.33 -1.3 4.66 -3 5 C-3 5.66 -3 6.32 -3 7 C-5.70879335 8.35439668 -8.00933268 8.06501451 -11 8 C-7.45960866 5.0843836 -3.8373228 2.49872182 0 0 Z " fill="#C3954B" transform="translate(226,183)"/>
<path d="M0 0 C2.43816585 -0.0809723 4.87364384 -0.14046972 7.3125 -0.1875 C8.34793945 -0.22520508 8.34793945 -0.22520508 9.40429688 -0.26367188 C11.42578125 -0.29296875 11.42578125 -0.29296875 15 0 C15.99 0.99 16.98 1.98 18 3 C12.06 2.67 6.12 2.34 0 2 C0 1.34 0 0.68 0 0 Z " fill="#B87C44" transform="translate(293,226)"/>
<path d="M0 0 C0.33 0.66 0.66 1.32 1 2 C1.66 2.33 2.32 2.66 3 3 C1.61860662 4.3482881 0.2192352 5.67817378 -1.1875 7 C-1.96480469 7.7425 -2.74210937 8.485 -3.54296875 9.25 C-6.33045204 11.23536171 -7.65781368 11.37992882 -11 11 C-10.34 10.34 -9.68 9.68 -9 9 C-8.01 9 -7.02 9 -6 9 C-5.896875 8.360625 -5.79375 7.72125 -5.6875 7.0625 C-5.460625 6.381875 -5.23375 5.70125 -5 5 C-4.01 4.67 -3.02 4.34 -2 4 C-0.79117904 1.99983534 -0.79117904 1.99983534 0 0 Z " fill="#C46A3C" transform="translate(364,213)"/>
<path d="M0 0 C2.09678815 3.40728075 2.4133256 6.03207421 2 10 C0.5 12.375 0.5 12.375 -1 14 C-2.36993985 11.11591611 -3.2431252 8.99024715 -2.46484375 5.8203125 C-1.71202914 3.85249013 -0.86184251 1.92257176 0 0 Z " fill="#E16E1A" transform="translate(400,324)"/>
<path d="M0 0 C0.33 0 0.66 0 1 0 C1 1.65 1 3.3 1 5 C0.34 5 -0.32 5 -1 5 C-1 5.66 -1 6.32 -1 7 C-1.99 7.495 -1.99 7.495 -3 8 C-3.65213292 10.02463255 -3.65213292 10.02463255 -4 12 C-4.99 12 -5.98 12 -7 12 C-7 12.66 -7 13.32 -7 14 C-7.66 14 -8.32 14 -9 14 C-7.65378455 10.19136032 -5.94641263 7.34590149 -3.4375 4.1875 C-2.81746094 3.39730469 -2.19742188 2.60710937 -1.55859375 1.79296875 C-0.78708984 0.90544922 -0.78708984 0.90544922 0 0 Z " fill="#C29950" transform="translate(197,207)"/>
<path d="M0 0 C0.66 0 1.32 0 2 0 C2.22174933 1.45635371 2.42698698 2.91522956 2.625 4.375 C2.74101562 5.18710937 2.85703125 5.99921875 2.9765625 6.8359375 C2.98429687 7.55007813 2.99203125 8.26421875 3 9 C2.34 9.66 1.68 10.32 1 11 C0.34 10.67 -0.32 10.34 -1 10 C-1.125 2.25 -1.125 2.25 0 0 Z " fill="#C56E31" transform="translate(400,336)"/>
<path d="M0 0 C2.3223428 2.8762349 3.86565842 5.63780422 5.25 9.0625 C5.60578125 9.91972656 5.9615625 10.77695313 6.328125 11.66015625 C7 14 7 14 6 17 C3.87491756 13.81237635 3.4979837 11.73487777 3 8 C2.34 8 1.68 8 1 8 C-0.35439668 5.29120665 -0.06501451 2.99066732 0 0 Z " fill="#AB7A55" transform="translate(389,215)"/>
<path d="M0 0 C0.66 0.33 1.32 0.66 2 1 C-6.261959 8.48291572 -6.261959 8.48291572 -11 11 C-11 8.69 -11 6.38 -11 4 C-10.29875 4.268125 -9.5975 4.53625 -8.875 4.8125 C-5.53988725 5.03000735 -5.13449613 4.63169388 -2.6875 2.5625 C-1.800625 1.716875 -0.91375 0.87125 0 0 Z " fill="#B26D4B" transform="translate(217,279)"/>
<path d="M0 0 C0.66 0.33 1.32 0.66 2 1 C1.01 3.97 0.02 6.94 -1 10 C-1.66 10 -2.32 10 -3 10 C-3.75 7.25 -3.75 7.25 -4 4 C-2.0625 1.625 -2.0625 1.625 0 0 Z " fill="#CF8D40" transform="translate(231,260)"/>
<path d="M0 0 C7.92119565 1.94293478 7.92119565 1.94293478 10 5 C10 5.99 10 6.98 10 8 C6.01328937 6.63312778 3.11505367 4.84804907 0 2 C0 1.34 0 0.68 0 0 Z " fill="#D76D2F" transform="translate(362,192)"/>
<path d="M0 0 C0.66 0.66 1.32 1.32 2 2 C0.10507994 2.33848652 -1.79098466 2.67056911 -3.6875 3 C-4.74324219 3.185625 -5.79898437 3.37125 -6.88671875 3.5625 C-9.64904062 3.95068074 -12.21742043 4.08259976 -15 4 C-12.39457984 2.26305323 -10.41657225 1.30899552 -7.5 0.3125 C-6.33984375 -0.09548828 -6.33984375 -0.09548828 -5.15625 -0.51171875 C-3 -1 -3 -1 0 0 Z " fill="#9B6E40" transform="translate(264,169)"/>
<path d="M0 0 C0.66 0 1.32 0 2 0 C2.50423019 5.29441695 1.18923033 7.81413519 -2 12 C-2.66 11.67 -3.32 11.34 -4 11 C-2.7874262 7.27566618 -1.49140021 3.62197194 0 0 Z " fill="#C77C49" transform="translate(392,361)"/>
<path d="M0 0 C0.78761719 0.25007812 1.57523437 0.50015625 2.38671875 0.7578125 C4.3125 1.875 4.3125 1.875 5.08203125 3.9921875 C5.15808594 4.61351562 5.23414063 5.23484375 5.3125 5.875 C0.59025484 4.34027032 -4.04605331 2.63554874 -8.6875 0.875 C-5.35969291 -1.21154266 -3.693807 -1.25772602 0 0 Z " fill="#AD6833" transform="translate(319.6875,229.125)"/>
<path d="M0 0 C0 3 0 3 -2.08203125 5.2265625 C-2.98308594 6.01804687 -3.88414062 6.80953125 -4.8125 7.625 C-5.70582031 8.42164063 -6.59914063 9.21828125 -7.51953125 10.0390625 C-10 12 -10 12 -13 13 C-11.48377109 9.14444648 -9.187601 7.3050235 -5.9375 4.8125 C-5.03902344 4.11769531 -4.14054687 3.42289062 -3.21484375 2.70703125 C-2.48394531 2.14371094 -1.75304687 1.58039063 -1 1 C-0.67 0.67 -0.34 0.34 0 0 Z " fill="#B48F70" transform="translate(380,382)"/>
<path d="M0 0 C0.99 0.33 1.98 0.66 3 1 C3 2.32 3 3.64 3 5 C2.01 5.495 2.01 5.495 1 6 C0.27306096 7.97888961 -0.39816251 9.97954558 -1 12 C-1.33 12 -1.66 12 -2 12 C-2.28571429 3.42857143 -2.28571429 3.42857143 0 0 Z " fill="#E36D1A" transform="translate(391,356)"/>
<path d="M0 0 C3.03368793 3.03368793 5 5.63755776 5 10 C3.02 9.34 1.04 8.68 -1 8 C-0.67 5.36 -0.34 2.72 0 0 Z " fill="#C47941" transform="translate(381,275)"/>
<path d="M0 0 C0.66 1.32 1.32 2.64 2 4 C-0.64 6.31 -3.28 8.62 -6 11 C-6.33 9.68 -6.66 8.36 -7 7 C-6.01 7 -5.02 7 -4 7 C-4 6.01 -4 5.02 -4 4 C-2.68 4 -1.36 4 0 4 C0 2.68 0 1.36 0 0 Z " fill="#AB6341" transform="translate(227,268)"/>
<path d="M0 0 C0 0.66 0 1.32 0 2 C-3.70416126 4.37590142 -6.92984573 4.20500286 -11.25 4.125 C-12.51328125 4.10695312 -13.7765625 4.08890625 -15.078125 4.0703125 C-16.04234375 4.04710937 -17.0065625 4.02390625 -18 4 C-18 3.67 -18 3.34 -18 3 C-15.3754034 2.49779928 -12.75036631 1.99814643 -10.125 1.5 C-9.37863281 1.35691406 -8.63226563 1.21382812 -7.86328125 1.06640625 C-2.2265625 0 -2.2265625 0 0 0 Z " fill="#835D2B" transform="translate(337,250)"/>
<path d="M0 0 C0.66 0.33 1.32 0.66 2 1 C-2.30769231 5.92307692 -2.30769231 5.92307692 -5.8125 6.3125 C-6.8953125 6.1578125 -6.8953125 6.1578125 -8 6 C-8 6.99 -8 7.98 -8 9 C-8.66 9 -9.32 9 -10 9 C-9.67 7.68 -9.34 6.36 -9 5 C-7.68 5 -6.36 5 -5 5 C-5 4.34 -5 3.68 -5 3 C-4.34 3 -3.68 3 -3 3 C-3 2.34 -3 1.68 -3 1 C-2.01 0.67 -1.02 0.34 0 0 Z " fill="#D87F22" transform="translate(377,223)"/>
<path d="M0 0 C0.99 0 1.98 0 3 0 C3.25 2.25 3.25 2.25 3 5 C1 7.3125 1 7.3125 -1 9 C-1.625 6.1875 -1.625 6.1875 -2 3 C-1.34 2.01 -0.68 1.02 0 0 Z " fill="#CD8532" transform="translate(187,221)"/>
<path d="M0 0 C0.66 0.33 1.32 0.66 2 1 C1.34 2.98 0.68 4.96 0 7 C-1.65 7 -3.3 7 -5 7 C-4.67 5.68 -4.34 4.36 -4 3 C-2.68 2.67 -1.36 2.34 0 2 C0 1.34 0 0.68 0 0 Z " fill="#E58E0A" transform="translate(211,199)"/>
<path d="M0 0 C0 0.66 0 1.32 0 2 C-3.87684087 3.19287411 -6.91621923 4 -11 4 C-11 3.34 -11 2.68 -11 2 C-7.17010894 0.19769832 -4.21878192 -0.19622241 0 0 Z " fill="#BA8044" transform="translate(253,173)"/>
<path d="M0 0 C1.60746056 0.42523816 3.21089836 0.86570126 4.8125 1.3125 C6.15248047 1.67794922 6.15248047 1.67794922 7.51953125 2.05078125 C10.05247738 3.0200819 11.2716496 3.95009604 13 6 C3.40546697 4.44191344 3.40546697 4.44191344 0 0 Z " fill="#6D6969" transform="translate(244,407)"/>
<path d="M0 0 C1.13199353 0.9080162 2.25532363 1.82683826 3.375 2.75 C4.00148438 3.26046875 4.62796875 3.7709375 5.2734375 4.296875 C7.08312318 6.08199481 8.00117455 7.67949644 9 10 C8.01 10 7.02 10 6 10 C4.39453125 8.3203125 4.39453125 8.3203125 2.8125 6.125 C2.01779297 5.04605469 2.01779297 5.04605469 1.20703125 3.9453125 C0 2 0 2 0 0 Z " fill="#A56B40" transform="translate(387,284)"/>
<path d="M0 0 C0.66 0 1.32 0 2 0 C1.69381595 3.67420866 1.24228216 4.78135513 -1.5625 7.3125 C-2.366875 7.869375 -3.17125 8.42625 -4 9 C-3.35494404 5.51669784 -2.01782732 2.90567134 0 0 Z " fill="#CC5E39" transform="translate(379,378)"/>
<path d="M0 0 C0 0.99 0 1.98 0 3 C-1.96875 4.60546875 -1.96875 4.60546875 -4.5 6.1875 C-5.3353125 6.71730469 -6.170625 7.24710937 -7.03125 7.79296875 C-7.6809375 8.19128906 -8.330625 8.58960938 -9 9 C-9 8.01 -9 7.02 -9 6 C-7.03125 4.39453125 -7.03125 4.39453125 -4.5 2.8125 C-3.6646875 2.28269531 -2.829375 1.75289063 -1.96875 1.20703125 C-0.99421875 0.60955078 -0.99421875 0.60955078 0 0 Z " fill="#6C6A67" transform="translate(222,289)"/>
<path d="M0 0 C2.0625 0.4375 2.0625 0.4375 4 1 C2.9024777 3.99324263 2.32317108 4.84610901 -0.625 6.25 C-1.40875 6.4975 -2.1925 6.745 -3 7 C-1.125 1.125 -1.125 1.125 0 0 Z " fill="#B56D53" transform="translate(362,393)"/>
<path d="M0 0 C1.65 1.65 3.3 3.3 5 5 C3.6875 6.5 3.6875 6.5 2 8 C1.01 8 0.02 8 -1 8 C-0.67 5.36 -0.34 2.72 0 0 Z " fill="#E06B1F" transform="translate(185,232)"/>
<path d="M0 0 C-1.24663331 0.50833591 -2.49749387 1.00631145 -3.75 1.5 C-4.44609375 1.7784375 -5.1421875 2.056875 -5.859375 2.34375 C-8 3 -8 3 -12 3 C-12 2.01 -12 1.02 -12 0 C-3.96428571 -1.20535714 -3.96428571 -1.20535714 0 0 Z " fill="#9F6530" transform="translate(272,231)"/>
<path d="M0 0 C4.95 0.99 4.95 0.99 10 2 C9.67 2.99 9.34 3.98 9 5 C5.51694958 4.35499066 2.93797836 2.95865224 0 1 C0 0.67 0 0.34 0 0 Z " fill="#C36A35" transform="translate(347,181)"/>
<path d="M0 0 C0.6875 1.75 0.6875 1.75 1 4 C-0.44521352 6.33986951 -2.05584605 8.05584605 -4 10 C-4 7.69 -4 5.38 -4 3 C-3.01 2.67 -2.02 2.34 -1 2 C-0.67 1.34 -0.34 0.68 0 0 Z " fill="#E28E15" transform="translate(194,216)"/>
<path d="M0 0 C1.32 0.33 2.64 0.66 4 1 C2.52307692 5.67692308 2.52307692 5.67692308 -0.125 7.3125 C-1.053125 7.6528125 -1.053125 7.6528125 -2 8 C-1.34 5.36 -0.68 2.72 0 0 Z " fill="#D79B38" transform="translate(214,191)"/>
<path d="M0 0 C2.64 0 5.28 0 8 0 C7.01 1.485 7.01 1.485 6 3 C2.875 3.1875 2.875 3.1875 0 3 C0 2.01 0 1.02 0 0 Z " fill="#E45D16" transform="translate(303,357)"/>
<path d="M0 0 C0.99 0.33 1.98 0.66 3 1 C2.01 4.3 1.02 7.6 0 11 C-1.04973814 6.80104745 -0.72795155 4.20594226 0 0 Z " fill="#A0623C" transform="translate(399,346)"/>
<path d="M0 0 C1.65 0 3.3 0 5 0 C3.66667905 3.99996286 1.5042173 4.83782337 -2 7 C-1.34 4.69 -0.68 2.38 0 0 Z " fill="#C06C4E" transform="translate(189,298)"/>
<path d="M0 0 C1.11375 0.1546875 1.11375 0.1546875 2.25 0.3125 C1.92 1.3025 1.59 2.2925 1.25 3.3125 C-0.59765625 4.04296875 -0.59765625 4.04296875 -2.8125 4.5 C-3.54597656 4.65855469 -4.27945312 4.81710938 -5.03515625 4.98046875 C-5.88400391 5.14482422 -5.88400391 5.14482422 -6.75 5.3125 C-3.42692308 0.38942308 -3.42692308 0.38942308 0 0 Z " fill="#966F4C" transform="translate(385.75,212.6875)"/>
<path d="M0 0 C-0.33 1.32 -0.66 2.64 -1 4 C-3.31 3.67 -5.62 3.34 -8 3 C-8 2.34 -8 1.68 -8 1 C-5.23735711 0.40267181 -2.83967231 0 0 0 Z " fill="#CD9256" transform="translate(335,307)"/>
<path d="M0 0 C0.33 0.99 0.66 1.98 1 3 C0.01 3 -0.98 3 -2 3 C-2 4.65 -2 6.3 -2 8 C-3.32 8 -4.64 8 -6 8 C-4.55746343 4.63408134 -2.66735273 2.48952921 0 0 Z " fill="#C2582B" transform="translate(222,272)"/>
<path d="M0 0 C0.33 0 0.66 0 1 0 C0.38461538 6.52307692 0.38461538 6.52307692 -1.5625 8.9375 C-2.036875 9.288125 -2.51125 9.63875 -3 10 C-3 8.02 -3 6.04 -3 4 C-2.34 4 -1.68 4 -1 4 C-0.67 2.68 -0.34 1.36 0 0 Z " fill="#DB7524" transform="translate(390,261)"/>
<path d="M0 0 C0.66 0.33 1.32 0.66 2 1 C-0.31 3.31 -2.62 5.62 -5 8 C-5.66 7.34 -6.32 6.68 -7 6 C-4.69 4.02 -2.38 2.04 0 0 Z " fill="#E48E09" transform="translate(220,192)"/>
<path d="M0 0 C0.9075 0.226875 1.815 0.45375 2.75 0.6875 C-0.8941774 3.1169516 -2.96241272 2.84929575 -7.25 2.6875 C-4.61280971 0.1517401 -3.74095095 -0.35970682 0 0 Z " fill="#C8592B" transform="translate(315.25,412.3125)"/>
<path d="M0 0 C1.65 0 3.3 0 5 0 C5 0.99 5 1.98 5 3 C3.35 3.33 1.7 3.66 0 4 C0 2.68 0 1.36 0 0 Z " fill="#E95B22" transform="translate(319,355)"/>
<path d="M0 0 C2.31 0.66 4.62 1.32 7 2 C7 2.99 7 3.98 7 5 C2.25 3.125 2.25 3.125 0 2 C0 1.34 0 0.68 0 0 Z " fill="#D09651" transform="translate(336,310)"/>
<path d="M0 0 C0.99 0.33 1.98 0.66 3 1 C2 2.5625 2 2.5625 0 4 C-2.76614782 3.96726452 -5.26030547 3.49404328 -8 3 C-8 2.67 -8 2.34 -8 2 C-6.865625 1.855625 -5.73125 1.71125 -4.5625 1.5625 C-1.19222799 1.38828522 -1.19222799 1.38828522 0 0 Z " fill="#DB851A" transform="translate(334,252)"/>
<path d="M0 0 C0.66 0 1.32 0 2 0 C2 1.65 2 3.3 2 5 C0.68 5.33 -0.64 5.66 -2 6 C-2 5.01 -2 4.02 -2 3 C-1.34 3 -0.68 3 0 3 C0 2.01 0 1.02 0 0 Z " fill="#D68221" transform="translate(361,233)"/>
<path d="M0 0 C4.455 0.99 4.455 0.99 9 2 C9 2.33 9 2.66 9 3 C6.03 3 3.06 3 0 3 C0 2.01 0 1.02 0 0 Z " fill="#99673F" transform="translate(326,170)"/>
<path d="M0 0 C0.99 0.33 1.98 0.66 3 1 C2.67 1.66 2.34 2.32 2 3 C-0.64860427 3.59355614 -3.29197322 3.74209269 -6 4 C-4.03617993 2.49440461 -2.21736634 1.10868317 0 0 Z " fill="#A46F37" transform="translate(334,344)"/>
<path d="M0 0 C0 0.99 0 1.98 0 3 C-2.3125 5.25 -2.3125 5.25 -5 7 C-5.99 6.67 -6.98 6.34 -8 6 C-5.36 4.02 -2.72 2.04 0 0 Z " fill="#463F3E" transform="translate(191,313)"/>
<path d="M0 0 C3.25543229 0.34879632 4.01873107 1.02133261 6.25 3.5625 C6.8275 4.366875 7.405 5.17125 8 6 C7.01 6.495 7.01 6.495 6 7 C1.125 2.25 1.125 2.25 0 0 Z " fill="#B9856F" transform="translate(371,196)"/>
<path d="M0 0 C0.99 0.33 1.98 0.66 3 1 C3 1.66 3 2.32 3 3 C0.29120665 4.35439668 -2.00933268 4.06501451 -5 4 C-2.6875 1.9375 -2.6875 1.9375 0 0 Z " fill="#AB813F" transform="translate(220,187)"/>
</svg>
